<svg xmlns="http://www.w3.org/2000/svg" viewBox="0 0 122.02 126.72"><defs><style>.cls-1{fill:#fff;}</style></defs><title>Asset 4</title><g id="Layer_2" data-name="Layer 2"><g id="Layer_1-2" data-name="Layer 1"><g id="_3CKv2B.tif" data-name="3CKv2B.tif"><path class="cls-1" d="M0,55.31a3.41,3.41,0,0,1,2.94-1.18c5,0,9.91,0,14.86,0,1.22,0,1.61-.43,1.78-1.55.46-2.91.78-5.86,2-8.61,1.47-3.27,4.07-5.52,6.66-7.81,3.08-2.72,6.13-5.49,9.24-8.18a1.83,1.83,0,0,0,.65-2.28C36.29,20.17,34.5,14.57,32.69,9c-.74-2.28-.23-3.21,2.08-4C39.52,3.48,44.27,1.92,49,.37c2.54-.82,3.39-.36,4.22,2.2,1.49,4.63,3,9.25,4.48,13.89.35,1.12.84,1.35,2,1.18,3-.43,6-1.22,9.07-.7a19.29,19.29,0,0,1,6.56,2.38c4.35,2.55,8.73,5.06,13,7.67a2.18,2.18,0,0,0,2.84-.16c4.58-3.4,9.21-6.73,13.83-10.09,2.18-1.59,3.11-1.43,4.7.77,3,4.09,5.94,8.16,8.88,12.25,1.34,1.86,1.16,2.87-.69,4.22-4.07,3-8.14,6-12.25,8.89-.81.58-1,1.05-.46,1.93.82,1.47,1.53,3,2.24,4.52a16.1,16.1,0,0,1,1.23,10.47c-1.11,5.09-2.16,10.2-3.36,15.28a2.36,2.36,0,0,0,1.11,2.87c4.66,3.3,9.26,6.68,13.87,10,2,1.47,2.16,2.46.66,4.52l-9,12.35c-1.28,1.77-2.35,2-4.13.69-4.09-3-8.18-5.9-12.23-8.91-.83-.61-1.39-.67-2.11.13-.95,1-2,2-3,3a17.55,17.55,0,0,1-11.25,5c-5,.43-10,1-15,1.48a1.63,1.63,0,0,0-1.62,1.37c-1.8,5.65-3.66,11.28-5.47,16.92a3.86,3.86,0,0,1-1.44,2.16H53.62c-.45-.18-.89-.39-1.35-.54q-6.81-2.22-13.62-4.44c-2.19-.72-2.65-1.63-1.95-3.8,1.55-4.79,3.08-9.6,4.67-14.38.31-.94.17-1.48-.75-1.89-1.09-.48-2.13-1.09-3.2-1.62a18.05,18.05,0,0,1-9-9.69c-1.87-4.54-4-9-5.87-13.51a1.83,1.83,0,0,0-2-1.3c-5.88,0-11.76,0-17.65,0A3.41,3.41,0,0,1,0,74.42ZM62.62,90c.91-.09,1.7-.21,2.5-.22s1.07-.19,1-1.08a6.56,6.56,0,0,1,2.7-6.14c2.36-1.85,4.74-3.7,7.09-5.57a14.2,14.2,0,0,1,7-2.89,17.86,17.86,0,0,1,2.88-.42c2.66.08,3.81-1.26,4.08-3.78.09-.85.09-1.27-.85-1.47a6.45,6.45,0,0,1-4.9-4.4c-.73-1.94-1.31-4-2.17-5.84a18.87,18.87,0,0,1-1-12.8c.86-3.49.7-3.51-2.43-5.37-.7-.42-1.06-.47-1.52.34a6.3,6.3,0,0,1-5.41,3.33c-3.22.15-6.45.18-9.67.32a13.42,13.42,0,0,1-7-1.73c-.78-.42-1.56-.83-2.35-1.23-3.29-1.68-3.27-1.65-6,.74-.58.5-.62.77-.08,1.33a6.12,6.12,0,0,1,1.63,6c-.93,3.54-2,7.06-3.06,10.56-.94,3-3.37,4.92-5.48,7.05-2.5,2.53-2.49,2.51-1.1,5.78.31.75.59.9,1.35.56a6.55,6.55,0,0,1,6.67.66c1.66,1.1,3.26,2.31,5,3.3a19,19,0,0,1,8.31,9.16c.43,1,1.06,1.94,1.55,2.93C61.6,89.74,62,90.13,62.62,90Zm31-12.27a46.85,46.85,0,0,0-10.11.91,9,9,0,0,0-3.64,1.16c-3,2-5.71,4.32-8.5,6.56A2.1,2.1,0,0,0,73.2,90a7,7,0,0,0,1.26-.38C79,88,83.32,85.93,88.24,85.79a2.41,2.41,0,0,1,2.61,1.54A2.18,2.18,0,0,1,89.7,90a4.66,4.66,0,0,1-2.54.67A13.16,13.16,0,0,0,81.26,92c-2,.75-4,1.47-6,2.2a6.08,6.08,0,0,1-4,.31,9.14,9.14,0,0,0-3.41-.3c-2.42.16-4.85.32-7.27.53a3.26,3.26,0,0,0-3,2.3,3.32,3.32,0,0,0,.84,3.65,4.55,4.55,0,0,0,4,1.27c5.23-.54,10.46-1.11,15.69-1.54A14.1,14.1,0,0,0,88,95.88c1.24-1.37,2.62-2.62,4-3.93,1.76-1.73,2.45-1.8,4.47-.34q5.92,4.26,11.8,8.59c.77.57,1.2.58,1.79-.27,1.89-2.72,3.85-5.4,5.84-8.05.61-.81.49-1.22-.31-1.79C111.29,87,107,84,102.81,80.79,100,78.58,96.94,77.18,93.62,77.73ZM62.33,39.57c2.76-.46,5.79-.09,8.78-.41,1.28-.14,2.14-.73,2.23-2a2.15,2.15,0,0,0-1.84-2.26c-1.49-.43-3-.87-4.47-1.27-3.1-.84-6.23-1.56-8.81-3.68-1.06-.86-1.57-2-1-3.09a2.25,2.25,0,0,1,3-1,4.17,4.17,0,0,1,1.29.67c1.52,1.35,3.41,1.78,5.29,2.28,2,.56,4.08,1.15,6.12,1.73a5.22,5.22,0,0,1,3,1.68c1.61,2.18,4.07,3.19,6.19,4.67.67.46,1,.35,1.2-.43a12.06,12.06,0,0,1,2.08-4.4c.72-.89.62-1.35-.37-1.92C80.82,27.8,76.75,25.4,72.67,23a12.46,12.46,0,0,0-8.45-1.45c-2.09.32-4.19.64-6.29.92-2.45.32-3,0-3.77-2.4-1.5-4.58-3-9.15-4.46-13.74-.28-.88-.63-1.23-1.62-.89C45,6.52,41.79,7.55,38.63,8.52c-1,.3-1.1.74-.8,1.64q2.82,8.55,5.58,17.14a8.53,8.53,0,0,0,2.85,4.23,54.69,54.69,0,0,0,12.09,7.34A10.2,10.2,0,0,0,62.33,39.57Zm30.26,15c-.78-3.07.13-5.23.71-7.44a2.13,2.13,0,0,1,2.5-1.67,2.25,2.25,0,0,1,1.93,2.33,8.9,8.9,0,0,1-.66,3,3.16,3.16,0,0,0-.3,1.14q.14,3.7.35,7.41c.12,2,.4,4.08-.77,5.81-1.45,2.15-1.63,4.64-2.35,7-.25.79.08,1,.83,1a13.11,13.11,0,0,1,4.7.69c1.17.48,1.52,0,1.75-1.06.94-4.45,1.93-8.89,2.91-13.34a12.75,12.75,0,0,0-1.18-9c-1-1.88-1.9-3.79-2.84-5.69-1-2.05-.85-2.75,1-4.13,4-2.89,7.93-5.79,11.92-8.65.7-.5.92-.87.33-1.67q-3-4-5.93-8.15c-.58-.83-1-.83-1.78-.25-4.84,3.57-9.73,7.08-14.59,10.61a9.79,9.79,0,0,0-3.52,5,84.57,84.57,0,0,0-2.49,10.16,12.59,12.59,0,0,0,.59,7.65c.94,2.29,1.71,4.65,2.57,7,.54,1.43,1.36,2,2.59,1.74s1.68-1,1.68-2.47C92.59,59,92.59,56.4,92.59,54.54ZM14.72,71.14c2.83,0,5.66,0,8.49,0A9.81,9.81,0,0,0,29,69.47a58,58,0,0,0,9.78-8.32,8,8,0,0,0,1.9-2.85c1.05-3.37,2-6.77,3-10.17a2,2,0,0,0-.85-2.22,2,2,0,0,0-2.14-.17,3.57,3.57,0,0,0-1.36,1.42l-5.08,7.62a3.72,3.72,0,0,1-1.33,1.45,5.33,5.33,0,0,0-3.09,4.61,2.11,2.11,0,0,1-2.37,2,2.15,2.15,0,0,1-2-2.33,7.84,7.84,0,0,1,3.13-6.73A17.7,17.7,0,0,0,32.63,49L36,44a5.05,5.05,0,0,1,2.41-2.21c2.58-.86,4.29-2.89,6.37-4.42.83-.61.6-1-.12-1.43a11.47,11.47,0,0,1-3.51-3.39c-.59-.92-1.07-.77-1.76-.15-3.58,3.23-7.2,6.42-10.78,9.64a11.92,11.92,0,0,0-3.81,7.11c-.37,2.27-.73,4.54-1.14,6.8-.37,2.09-1,2.6-3.11,2.61-4.95,0-9.9,0-14.86,0-1,0-1.33.28-1.32,1.28q.07,5,0,10.09c0,.93.32,1.23,1.24,1.22C8.62,71.12,11.67,71.14,14.72,71.14ZM50.22,95a2.27,2.27,0,0,1-3.73,1.62,6.08,6.08,0,0,1-2.18-3.11,14.21,14.21,0,0,0-3.17-5.28c-1.19-1.49-2.35-3-3.54-4.48A6.23,6.23,0,0,1,35.91,80c-.06-2.63-1.43-4.8-2.22-7.17-.26-.77-.56-.84-1.2-.35A13.48,13.48,0,0,1,27.71,75c-.86.22-.7.7-.44,1.29,2,4.49,3.95,9,5.94,13.48a11.85,11.85,0,0,0,5.59,5.82l6,3.13c2,1,2.3,1.81,1.6,4-1.5,4.63-3,9.26-4.53,13.87-.32,1-.22,1.41.83,1.72,3.13,1,6.24,2,9.34,3,1,.35,1.42.09,1.73-.89,1.31-4.17,2.61-8.35,4.06-12.48.5-1.42.31-2.1-1-2.91A8,8,0,0,1,55,92.7c.64-.69,1.95-1,1.86-2a8.14,8.14,0,0,0-1.23-2.61c-.1-.2-.21-.39-.32-.58-.93-1.65-1.68-3.44-3.33-4.56-2.64-1.79-5.26-3.59-7.92-5.35-1.25-.83-2.31-.72-3.1.19s-.68,2,.23,3.12c1.31,1.67,2.64,3.33,3.94,5s3,3.28,3.32,5.62a3.53,3.53,0,0,0,1,1.68A2.7,2.7,0,0,1,50.22,95Z"/><path class="cls-1" d="M78.7,58.4a7.15,7.15,0,0,1-2.14,5.27q-5.46,5.51-11,11c-1.32,1.31-2.46,1.3-3.79,0C58.19,71,54.59,67.46,51,63.83A7.66,7.66,0,0,1,61.55,52.72c.73.62,1.24,1.82,2.18,1.79s1.43-1.2,2.16-1.83a7.42,7.42,0,0,1,8.28-1.31A7.31,7.31,0,0,1,78.7,58.4ZM56.45,55.34a2.89,2.89,0,0,0-2.91,1.81,2.94,2.94,0,0,0,.69,3.52c2.91,3,5.86,5.88,8.79,8.83.44.45.79.6,1.31.08,2.94-3,6-5.92,8.86-8.94a3,3,0,0,0,0-4.5,3.17,3.17,0,0,0-4.51.22c-1,.92-1.87,1.88-2.81,2.81-1.61,1.56-2.67,1.55-4.3,0-1-1-1.94-1.93-2.91-2.9A2.75,2.75,0,0,0,56.45,55.34Z"/></g></g></g></svg>