<svg xmlns="http://www.w3.org/2000/svg" viewBox="0 0 97.31 97.27"><defs><style>.cls-1{fill:#fff;}</style></defs><title>Asset 2</title><g id="Layer_2" data-name="Layer 2"><g id="Layer_1-2" data-name="Layer 1"><g id="_7AqEpP" data-name="7AqEpP"><path class="cls-1" d="M48.58,97.27H10.93c-2.7,0-4-1.34-4-4.06q0-4.87,0-9.75a10.48,10.48,0,0,1,10.7-10.68H19.4c1.35,0,1.37,0,1.37-1.4q0-4.65,0-9.3c0-4.54-.05-9.08,0-13.63a27,27,0,0,1,7.38-18.68,27.08,27.08,0,0,1,22.07-8.94A26.52,26.52,0,0,1,67.29,28,27.37,27.37,0,0,1,76.5,49q0,11.06,0,22.11c0,1.8-.16,1.61,1.6,1.63a17.55,17.55,0,0,1,4.39.34A10.44,10.44,0,0,1,90.38,83c0,3.49,0,7,0,10.48a3.5,3.5,0,0,1-3.8,3.75Zm0-24.49H67.9c1.41,0,1.44,0,1.44-1.39,0-7.52,0-15,0-22.56a20.71,20.71,0,0,0-32.1-17.39A20.26,20.26,0,0,0,28,48.75c-.11,7.55,0,15.1,0,22.65,0,1.36,0,1.37,1.35,1.37Zm-.06,17.33H81.92c1.31,0,1.31,0,1.31-1.35,0-1.59,0-3.19,0-4.78,0-2.67-1.41-4-4.09-4H18.05a3.64,3.64,0,0,0-4,4c0,1.68,0,3.36,0,5,0,1.17,0,1.17,1.19,1.17Z"/><path class="cls-1" d="M76,25.23c-1.8,0-2.89-.61-3.52-1.88a3.26,3.26,0,0,1,.29-3.81,45.25,45.25,0,0,1,5.81-5.77,3.49,3.49,0,0,1,4.41.34,3.67,3.67,0,0,1,.79,4.22,5.05,5.05,0,0,1-.84,1.16c-1.54,1.57-3.09,3.11-4.65,4.65A3.21,3.21,0,0,1,76,25.23Z"/><path class="cls-1" d="M25.23,21.53a3.33,3.33,0,0,1-2,3.38,3.46,3.46,0,0,1-4-.57q-2.59-2.44-5-5a3.6,3.6,0,0,1,0-5.12,3.55,3.55,0,0,1,5,0c1.77,1.63,3.44,3.36,5.12,5.08A3,3,0,0,1,25.23,21.53Z"/><path class="cls-1" d="M52.26,7.08c0,1.08,0,2.16,0,3.24-.06,2.29-1.41,3.7-3.54,3.71A3.45,3.45,0,0,1,45,10.37Q45,7,45,3.7a3.62,3.62,0,1,1,7.23,0C52.28,4.85,52.26,6,52.26,7.08Z"/><path class="cls-1" d="M7.06,52.26c-1.11,0-2.23,0-3.34,0A3.61,3.61,0,1,1,3.64,45C5.89,45,8.15,45,10.4,45a3.62,3.62,0,1,1-.1,7.23C9.22,52.27,8.14,52.26,7.06,52.26Z"/><path class="cls-1" d="M90.23,52.26c-1.09,0-2.17,0-3.25,0a3.62,3.62,0,1,1,0-7.23c2.23,0,4.46-.06,6.68,0a3.61,3.61,0,1,1,0,7.22C92.45,52.28,91.34,52.26,90.23,52.26Z"/></g><path class="cls-1" d="M48.67,39.59c-.7,0-1.4,0-2.1,0a3.17,3.17,0,0,0-3.06,3.09c0,1.24,0,2.49,0,3.73,0,.55-.09.64-.63.64-1.08,0-2.16,0-3.25,0a5.55,5.55,0,0,0-1.51.2,3.22,3.22,0,0,0-2.06,2.36A34.52,34.52,0,0,0,36,54.37a3,3,0,0,0,1.47,2.55,3.7,3.7,0,0,0,2,.56c1.16,0,2.31,0,3.47,0,.5,0,.58.08.58.58,0,1.26,0,2.52,0,3.77a2.3,2.3,0,0,0,.06.74A3.33,3.33,0,0,0,46.93,65c1.1,0,2.19,0,3.29,0a4.83,4.83,0,0,0,1.51-.2,3.1,3.1,0,0,0,2.05-2.69c0-1.1,0-2.19,0-3.29,0-1.38-.13-1.29,1.26-1.29.94,0,1.87,0,2.81,0a4,4,0,0,0,1.49-.3,3.13,3.13,0,0,0,2-3.16c0-1.22,0-2.45,0-3.68a3.18,3.18,0,0,0-3.2-3.29H54.62c-.8,0-.83,0-.83-.85,0-1.19-.07-2.37,0-3.55a3.16,3.16,0,0,0-3-3.07C50.08,39.62,49.37,39.59,48.67,39.59Z"/></g></g></svg>