<svg xmlns="http://www.w3.org/2000/svg" viewBox="0 0 119.82 95.06"><defs><style>.cls-1{fill:#fff;}</style></defs><title>Asset 3</title><g id="Layer_2" data-name="Layer 2"><g id="Layer_1-2" data-name="Layer 1"><g id="QQ5y8o"><path class="cls-1" d="M60.24,0c-1,0-1.92,0-2.88,0a4.33,4.33,0,0,0-4.18,4.22c.06,1.69,0,3.39,0,5.09,0,.75-.12.87-.86.88-1.48,0-3,0-4.44,0a6.86,6.86,0,0,0-2.06.27A4.38,4.38,0,0,0,43,13.69a44.2,44.2,0,0,0-.09,6.51,4.11,4.11,0,0,0,2,3.49,5.09,5.09,0,0,0,2.73.75c1.57,0,3.15,0,4.73,0,.7,0,.8.11.8.8,0,1.71,0,3.43,0,5.15a2.87,2.87,0,0,0,.09,1,4.53,4.53,0,0,0,4.57,3.23c1.5,0,3,0,4.49,0a6.78,6.78,0,0,0,2.06-.27,4.25,4.25,0,0,0,2.81-3.68c0-1.49,0-3,0-4.49,0-1.89-.18-1.76,1.72-1.76,1.28,0,2.56,0,3.84,0a5.37,5.37,0,0,0,2-.41,4.27,4.27,0,0,0,2.71-4.31c0-1.68,0-3.36,0-5a4.64,4.64,0,0,0-.26-1.65,4.46,4.46,0,0,0-4.12-2.85H68.36c-1.09,0-1.13,0-1.13-1.16,0-1.62-.09-3.24,0-4.85A4.32,4.32,0,0,0,63.11,0C62.16.05,61.2,0,60.24,0Z"/><path class="cls-1" d="M0,28.65A.69.69,0,0,0,.21,28a35.4,35.4,0,0,1,.54-5.23c.31-2.27.93-4.47,1.35-6.72s1-4.22,1.41-6.35A13.38,13.38,0,0,1,4.57,6.06,7.85,7.85,0,0,1,8.84,2.24a7.66,7.66,0,0,1,3.74-.53,7.86,7.86,0,0,1,5.85,3.51,8.22,8.22,0,0,1,1.22,6c-.23,1.61-.28,3.26-.45,4.88a92.71,92.71,0,0,0-.74,12.46c0,1.17,0,1.1,1.15,1.2a8.07,8.07,0,0,1,6.48,3.62A73.68,73.68,0,0,0,34.45,44a113.37,113.37,0,0,0,11.13,9.88,56.9,56.9,0,0,1,5.34,4.71A21,21,0,0,1,55.83,66a20.31,20.31,0,0,1,1.05,5.44c.14,2,.48,3.92.57,5.88.06,1.58.34,3.13.46,4.7.11,1.4.2,2.82.4,4.22.24,1.69.38,3.4.5,5.11a25.18,25.18,0,0,1,.28,2.74c0,1,0,1-1,1-4.45,0-8.91,0-13.36,0s-9.15,0-13.72,0c-.85,0-.88,0-.89-.86,0-1,0-2,0-3-.16-2.5-.34-5-.5-7.49a4,4,0,0,0-1.78-3.23c-2.15-1.62-4.38-3.13-6.64-4.59-4-2.57-8-5.08-12-7.65a18.06,18.06,0,0,1-3.23-3A22,22,0,0,1,1.6,58.63,15.15,15.15,0,0,1,.22,52.51c0-3,0-5.95,0-8.92a1.7,1.7,0,0,0-.22-1ZM44.36,90.83c3.11,0,6.23,0,9.34,0,.44,0,.61-.07.6-.59,0-1.09-.31-2.14-.34-3.21-.1-2.59-.46-5.16-.72-7.73s-.44-5.12-.76-7.67a18.58,18.58,0,0,0-.85-4.37,16.52,16.52,0,0,0-4.19-6c-2.09-2-4.35-3.81-6.61-5.62a93.59,93.59,0,0,1-11.2-10.42,76.78,76.78,0,0,1-7.12-9.32,3.6,3.6,0,0,0-6.4,3.24c.46,1,.89,2,1.35,2.93,1.21,2.56,2.42,5.11,3.65,7.66a34.67,34.67,0,0,0,2,3.9c1,1.56,2.08,3.06,3.15,4.58.11.16.27.38.13.54s-.39,0-.56-.14c-1.6-1.12-3.18-2.27-4.8-3.38a6.33,6.33,0,0,1-2.38-2.62c-.58-1.33-1.15-2.67-1.73-4-1-2.32-2-4.63-3-7a10,10,0,0,1-1-2.74,6.66,6.66,0,0,1,1.32-5.13,1.26,1.26,0,0,0,.25-.87c0-1-.31-2-.29-3a89,89,0,0,1,.22-9.09c.32-2.49.46-5,.71-7.49a27,27,0,0,0,.28-4.12,2.08,2.08,0,0,0-.19-.92,3.53,3.53,0,0,0-3.53-2.17A3.47,3.47,0,0,0,8.37,8.23,7.31,7.31,0,0,0,8,9.67c-.31,1.15-.52,2.33-.78,3.49s-.51,2.41-.78,3.62-.55,2.28-.75,3.43c-.22,1.31-.55,2.6-.71,3.93a35.22,35.22,0,0,0-.5,4.33c0,7.22,0,14.45,0,21.68a16.2,16.2,0,0,0,2.2,8.74,19.58,19.58,0,0,0,4.62,5.38c2.85,2.21,6.05,3.91,9.09,5.86A101,101,0,0,1,31.62,78a5,5,0,0,1,1.93,2.66c.11.53.21,1,.28,1.58a59.72,59.72,0,0,1,.56,6.12c0,.52,0,1,0,1.55,0,.94,0,.94.91.94Z"/><path class="cls-1" d="M119.82,56.09a12,12,0,0,0-.73,2,25,25,0,0,1-4.53,7.06,29.85,29.85,0,0,1-7.15,5.55c-2.76,1.71-5.48,3.48-8.23,5.22-2.27,1.44-4.47,3-6.65,4.57a4,4,0,0,0-1.72,3.2c-.3,3.51-.48,7-.48,10.56,0,.73-.07.8-.78.8H62.06c-.54,0-.78-.18-.72-.73.18-1.66.34-3.32.51-5,.08-.83.09-1.67.22-2.5.35-2.4.45-4.83.75-7.24.18-1.44.27-2.9.43-4.34.2-1.7.18-3.42.54-5.11.14-.65.11-1.34.25-2a17.61,17.61,0,0,1,4-7.91,54,54,0,0,1,7.47-6.87A103.46,103.46,0,0,0,86.76,43.17a70,70,0,0,0,6.81-8.63,10.82,10.82,0,0,1,2.76-3.27,9.05,9.05,0,0,1,4.77-1.53c.86,0,.8,0,.88-.87a26.2,26.2,0,0,0,0-4.77c-.14-1.51-.14-3-.35-4.53s-.28-3.25-.48-4.87-.22-3-.43-4.52a7,7,0,0,1,1-4.42A7.75,7.75,0,0,1,106.32,2a7.88,7.88,0,0,1,4-.16,8.06,8.06,0,0,1,5.16,3.48A10.15,10.15,0,0,1,116.82,9c.29,1.26.54,2.53.84,3.78.13.55.2,1.1.33,1.64.55,2.38,1,4.78,1.55,7.16.09.42-.11.9.28,1.25ZM76.09,90.83c3,0,6.11,0,9.16,0,.61,0,.81-.19.79-.79a16.47,16.47,0,0,1,.08-3.22c.3-1.61.18-3.25.5-4.86a5.74,5.74,0,0,1,1.45-3.31A33.12,33.12,0,0,1,91.26,76c2.31-1.71,4.71-3.29,7.14-4.82s4.77-3,7.14-4.49a28.74,28.74,0,0,0,4-2.72,22.13,22.13,0,0,0,4.53-5.53A13.1,13.1,0,0,0,116,52.31c.11-5.87-.06-11.74.11-17.61.05-1.75,0-3.51,0-5.26a47.71,47.71,0,0,0-.69-6.54c-.42-2.48-1-4.94-1.54-7.41-.47-2.11-1-4.22-1.45-6.33a3.67,3.67,0,0,0-7.28.56c.07,1,.17,1.94.26,2.91.16,1.67.26,3.35.46,5,.22,1.86.43,3.73.5,5.59a50.34,50.34,0,0,1-.21,9,1.81,1.81,0,0,0,.17,1.45A7.08,7.08,0,0,1,107.42,36a6.44,6.44,0,0,1,.06,3.48,30.58,30.58,0,0,1-1.56,3.75c-1.19,2.76-2.41,5.51-3.59,8.27A7.06,7.06,0,0,1,100,54.83c-.89.58-1.73,1.22-2.6,1.82l-2.7,1.89c-.16.11-.34.27-.52.06s0-.33.09-.48l.21-.29a42.65,42.65,0,0,0,3.45-5.17c.88-1.74,1.68-3.52,2.52-5.28,1.22-2.57,2.43-5.15,3.67-7.71a3.74,3.74,0,0,0,.35-2.94,3.41,3.41,0,0,0-3.28-2.49,3.26,3.26,0,0,0-3.06,1.38c-.94,1.31-1.83,2.66-2.78,4a73.23,73.23,0,0,1-7.08,8.34A141,141,0,0,1,76.66,58a30,30,0,0,0-6.58,6.73,12.37,12.37,0,0,0-2,5.86c-.11,1.65-.38,3.28-.49,4.93-.1,1.43-.32,2.85-.44,4.28s-.27,2.73-.37,4.1c-.16,2-.43,4.08-.61,6.13-.07.75,0,.77.75.77Z"/></g></g></g></svg>