<svg xmlns="http://www.w3.org/2000/svg" viewBox="0 0 99.43 99.45"><defs><style>.cls-1{fill:#fff;}</style></defs><title>Asset 5</title><g id="Layer_2" data-name="Layer 2"><g id="Layer_1-2" data-name="Layer 1"><g id="KrGlje.tif"><path class="cls-1" d="M92.94,99.45h-32a8.48,8.48,0,0,1-6.53-8.88c.17-6.53.11-13.08,0-19.62a8.7,8.7,0,0,1,3.05-7.28,4.6,4.6,0,0,0,1.82-4.33c-.15-1.44,0-1.45-1.45-1.48a3.2,3.2,0,0,1-3.38-3.4c0-2.07,0-4.14,0-6.21a2,2,0,0,0-.64-1.59c-1.11-1.06-2.21-2.13-3.25-3.26-.61-.67-1-.71-1.67,0Q43.45,48.88,38,54.28c-.66.64-.72.95.1,1.54A24.1,24.1,0,0,1,36.5,96.08a25.79,25.79,0,0,1-9.66,3.37H21.23a2.81,2.81,0,0,0-.48-.12A24,24,0,0,1,3,87.27a26,26,0,0,1-3-8.86v-6a27.19,27.19,0,0,1,2.14-7.17C6.06,57.39,12.33,52.75,21,51.5c1-.14,1.35-.48,1.34-1.52-.06-4.47,0-8.94,0-13.41,0-.87-.3-1.17-1.17-1.15-2.36,0-4.73,0-7.1,0a13.5,13.5,0,0,1-6.69-1.78A14.68,14.68,0,0,1,0,23.13v-3.8c3.7-.18,7.4,0,11.11-.08a14.28,14.28,0,0,1,10.52,4.36c.19.18.29.53.72.46,0-2.25,0-4.48,0-6.71,0-.86-.27-1.19-1.15-1.17-2.37,0-4.74,0-7.11,0a13.46,13.46,0,0,1-6.7-1.78A14.68,14.68,0,0,1,0,3.91V.1C3.74-.08,7.47,0,11.21,0A14.38,14.38,0,0,1,25.53,12.12c.14.79.19,1.59.31,2.63.39-.45.6-.75.87-1A13.39,13.39,0,0,1,35.53,9.7c3.89-.18,7.8,0,11.71-.07.62,0,.87.21.92.87A14.49,14.49,0,0,1,33.87,25.81H26.76c-.48,0-1,0-1,.65,0,2.42,0,4.83,0,7.45l.65-.62a14.26,14.26,0,0,1,10.68-4.44c2.44,0,4.88,0,7.31,0A2.61,2.61,0,0,0,46.66,28c.68-.78,1.49-1.44,2.17-2.21s1.06-.64,1.69,0c3.16,3.21,6.38,6.36,9.53,9.58.66.67,1,.66,1.67,0q7.19-7.26,14.45-14.44c.73-.72.74-1.12,0-1.82-1.72-1.62-3.37-3.33-5-5-.23-.23-.62-.45-.49-.81s.56-.3.88-.37c.55-.12,1.11-.22,1.66-.33L97.13,7.78c1-.21,1.15-.08,1,.92-.28,1.44-.58,2.88-.86,4.32Q95.1,23.66,93,34.31c-.07.32-.06.77-.36.89s-.63-.29-.88-.54c-1.68-1.66-3.38-3.32-5-5-.61-.63-1-.73-1.67,0-4.78,4.84-9.61,9.64-14.42,14.46-.2.2-.49.36-.54.7.33.24.71.12,1,.12H95.88a3.22,3.22,0,0,1,3.54,3.54c0,2,0,4.08,0,6.11a3.15,3.15,0,0,1-.8,2.2,3.11,3.11,0,0,1-2.77,1.11c-1-.09-1.17.35-1.27,1.27a4.62,4.62,0,0,0,2,4.67,4.53,4.53,0,0,1,.49.49,8,8,0,0,1,2.39,5.86c0,7.08,0,14.15,0,21.23A7,7,0,0,1,99.29,93,8.19,8.19,0,0,1,92.94,99.45ZM24,96.16A20.73,20.73,0,1,0,3.33,75.36,20.7,20.7,0,0,0,24,96.16Zm53-38.3c-4.37,0-8.74,0-13.11,0-.95,0-1.43.28-1.25,1.25.57,3.11-.6,5.44-3,7.32a5,5,0,0,0-1.77,4.19c0,6.77,0,13.54,0,20.32,0,3.32,2.13,5.33,5.46,5.25.64,0,.86-.17.83-.86a37.53,37.53,0,0,1,0-4.5,1.33,1.33,0,0,0-.79-1.56,4.53,4.53,0,0,1-2.47-4.17c0-.9,0-1.81,0-2.71a4.89,4.89,0,0,1,2.81-5,.74.74,0,0,0,.51-.85A28.16,28.16,0,0,1,64,72a4.72,4.72,0,0,1,4.73-4.71q9.76,0,19.52,0A4.76,4.76,0,0,1,93,72.05c0,.94,0,1.87,0,2.8a4.89,4.89,0,0,1-2.82,5,.79.79,0,0,0-.48,1,24.84,24.84,0,0,1,0,4.8,1.38,1.38,0,0,0,.82,1.64A4.53,4.53,0,0,1,93,91.42c0,1.11,0,2.21,0,3.31,0,.28-.16.66.2.8s.56-.14.8-.31a4.93,4.93,0,0,0,2-4.34c0-6.71,0-13.41,0-20.12a5.18,5.18,0,0,0-1.87-4.44,7.06,7.06,0,0,1-3-7.17c.18-1.24,0-1.29-1.26-1.29Zm.22-42.58c1.44,1.41,2.67,2.67,4,3.87.63.58.7,1,0,1.61S79.89,22,79.27,22.59Q70.53,31.34,61.8,40.1c-.72.73-1.14.69-1.84,0-3.1-3.17-6.26-6.29-9.4-9.43-.16-.17-.33-.33-.5-.49s-.47-.3-.7-.06c-.52.54-1.14.95-1.26,1.84A14.55,14.55,0,0,1,35,45a1.59,1.59,0,0,0-1,.4L28.43,51c-.43.42-.38.62.24.74A16.72,16.72,0,0,1,32.79,53,1.64,1.64,0,0,0,35,52.48c4.48-4.53,9-9,13.51-13.53,1.33-1.33,1.09-1.31,2.44,0,1.73,1.71,3.46,3.43,5.16,5.17a2.18,2.18,0,0,0,1.76.75q3-.06,6,0a2.44,2.44,0,0,0,1.94-.8Q74,35.79,82.33,27.52c.94-.95,1.91-1.87,2.82-2.84.53-.57.93-.59,1.47,0,1,1.11,2.16,2.18,3.25,3.26.2.19.34.52.71.45a1.07,1.07,0,0,0,.09-.19q1.55-7.69,3.1-15.4c.17-.84-.3-.77-.87-.66l-9.72,1.93Zm-.25,33c-6,0-11.94,0-17.91,0-1,0-1.31.31-1.25,1.27.06,1.17,0,2.34,0,3.5,0,1.5,0,1.5,1.5,1.5H95.17c.65,0,.9-.27.9-.9,0-1.34,0-2.67,0-4s0-1.35-1.34-1.35ZM17.72,12.84c1.17,0,2.33,0,3.5,0,.73,0,.92-.24.77-1a11.19,11.19,0,0,0-9.23-8.34c-2.7-.29-5.39-.11-8.09-.16-1.17,0-1.29.13-.93,1.28a10.9,10.9,0,0,0,8.11,7.8A23.06,23.06,0,0,0,17.72,12.84Zm12.56,9.62c1.63,0,3.26,0,4.9-.17A11.17,11.17,0,0,0,44.41,14c.13-.58.13-1-.64-1a86.85,86.85,0,0,0-8.69.19,11.22,11.22,0,0,0-9,8.24c-.16.74,0,1.06.79,1C28,22.42,29.15,22.45,30.28,22.46Zm-22.39.15c-1.13,0-2.26,0-3.4,0-.74,0-1,.18-.84,1A11.18,11.18,0,0,0,12.9,31.9c2.7.3,5.4.11,8.09.16,1.13,0,1.25-.12.92-1.21A10.89,10.89,0,0,0,14,23,22.42,22.42,0,0,0,7.89,22.61ZM30.24,41.68a46.41,46.41,0,0,0,5-.17,11.2,11.2,0,0,0,9.19-8.37c.13-.67,0-.94-.72-.92-2.83.08-5.67-.14-8.49.18a11.21,11.21,0,0,0-9.14,8.32c-.15.71,0,1,.76,1C28,41.66,29.11,41.68,30.24,41.68ZM78.51,76.93h7.72c3.28,0,3.43-.14,3.42-3.44a5,5,0,0,0-.11-1.59,1.9,1.9,0,0,0-2.25-1.21c-1,.14-.6.94-.68,1.5,0,.36,0,.73,0,1.1s-.12.54-.45.55c-.89,0-1.89.32-2.64-.14-.56-.34-.17-1.25-.25-1.89,0-.1,0-.2,0-.3,0-.61-.29-.85-.87-.83h-.8c-1.37,0-1.37,0-1.38,1.42,0,1.93.18,1.78-1.78,1.78-1.57,0-1.57,0-1.58-1.58s0-1.62-1.58-1.62-1.46,0-1.47,1.43a7.12,7.12,0,0,0,0,.8c.07.74-.27,1-1,1-2.29,0-2.29.07-2.37-2.22a2.69,2.69,0,0,0,0-.49.59.59,0,0,0-.45-.48,1.92,1.92,0,0,0-2.54,1.68c-.06.76,0,1.53,0,2.3,0,1.67.57,2.24,2.22,2.24Zm-3.25,9.62h9.11c.82,0,1.64-.15,1.87-1a8,8,0,0,0,0-4.24,1.88,1.88,0,0,0-2.2-1c-.93.17-.56.91-.62,1.44a10.17,10.17,0,0,0,0,1.1c0,.34-.11.61-.5.62-.87,0-1.84.3-2.56-.13s-.19-1.3-.28-2a2.67,2.67,0,0,1,0-.4c0-.45-.28-.62-.71-.68C77.23,80,77,80.2,77,82.26c0,.24,0,.47,0,.7a.48.48,0,0,1-.5.51c-.87,0-1.84.3-2.56-.13s-.18-1.3-.27-2a.67.67,0,0,1,0-.2c0-.58-.23-.86-.83-.87-2.55,0-2.21-.12-2.22,2,0,.24,0,.47,0,.7a.47.47,0,0,1-.51.5c-.87,0-1.84.31-2.55-.14s-.19-1.3-.27-2c0-.1,0-.2,0-.3,0-.49-.24-.71-.74-.76a1.86,1.86,0,0,0-2.3,2c0,.67,0,1.34,0,2,0,1.74.56,2.29,2.28,2.3Zm3.19,9.61h9.12c.85,0,1.69-.17,1.91-1.1a8.71,8.71,0,0,0,0-4.06,1.87,1.87,0,0,0-2.23-1.08c-.94.16-.56.9-.64,1.43a2.73,2.73,0,0,0,0,.7c.09.86-.32,1.09-1.11,1.07-2.71,0-2.22.19-2.24-2.12,0-.74-.21-1.1-1-1.11-2,0-2,0-2,2,0,.14,0,.27,0,.4,0,.59-.21.82-.81.86-2.45.16-2.45.18-2.55-2.24,0-.1,0-.2,0-.3,0-.44-.27-.61-.7-.67-2.09-.28-2.31-.1-2.34,2,0,.24,0,.47,0,.7s-.18.51-.5.51c-.87,0-1.84.3-2.56-.13s-.19-1.3-.27-2c0-.16,0-.33,0-.5a.63.63,0,0,0-.51-.54,1.92,1.92,0,0,0-2.51,1.72c0,.67,0,1.34,0,2,0,2,.48,2.51,2.46,2.51C72.71,96.17,75.58,96.16,78.45,96.16ZM25.72,48.47l3.43-3.42H26.38c-.45,0-.65.28-.66.71Z"/><path class="cls-1" d="M19.42,78.54a1.61,1.61,0,0,1,1.95,1c.23.53.91.6,1.5.61,1.07,0,2.14,0,3.2,0s1.16-.39,1.09-1.21a1.73,1.73,0,0,0-1.81-1.84c-1,0-2,0-3,0a4.81,4.81,0,0,1-4.8-4.77c0-1.3,0-2.6,0-3.9,0-.8.23-1.16,1.07-1.11s1.87,0,2.8,0c.69,0,.93-.29,1-1,.08-2.42.1-2.4,2.5-2.26.58,0,.88.22.84.83,0,.16,0,.33,0,.5,0,1.6,0,1.58,1.56,2.14a4.83,4.83,0,0,1,3.17,3.59c.18.72,0,1.17-.86,1.12a10.73,10.73,0,0,0-1.5,0A1,1,0,0,1,27,71.66a1.65,1.65,0,0,0-1.62-1c-1.2,0-2.4,0-3.6,0-.59,0-.82.26-.85.85A1.85,1.85,0,0,0,23,73.73c.94,0,1.87,0,2.8,0a4.77,4.77,0,0,1,4.74,4.71c0,1.3,0,2.6,0,3.9,0,.85-.22,1.22-1.12,1.16s-1.87,0-2.8,0c-.64,0-.93.27-.89.9v.1c-.09,2.28-.09,2.26-2.37,2.22-.72,0-1.07-.24-1-1a4.17,4.17,0,0,1,0-.5c.16-1.11-.16-1.71-1.41-2a4.34,4.34,0,0,1-3.19-3.15c-.42-1.32-.26-1.54,1.08-1.55Z"/><path class="cls-1" d="M24.08,57.67c7.05.26,12.45,3.38,15.69,9.66s2.63,12.31-1.13,18.14c-.86,1.34-.9,1.32-2.09.34-1.45-1.17-1.45-1.17-.45-2.75A14.26,14.26,0,0,0,25.54,61.22a13.86,13.86,0,0,0-9.75,2.54c-.68.48-1.07.55-1.61-.18-1.49-2-2.08-1.62.57-3.27A17.11,17.11,0,0,1,24.08,57.67Z"/><path class="cls-1" d="M23.55,93.11A17.58,17.58,0,0,1,6.32,75.46,17.83,17.83,0,0,1,9.63,65c.49-.71.88-.92,1.64-.27,1.66,1.41,1.69,1.37.56,3.21A14.28,14.28,0,0,0,22.49,89.6a14,14,0,0,0,9.75-2.51c.71-.5,1.13-.58,1.69.19,1.42,1.93,2,1.56-.57,3.21A17.24,17.24,0,0,1,23.55,93.11Z"/></g></g></g></svg>