<svg xmlns="http://www.w3.org/2000/svg" width="225" height="106" viewBox="0 0 225 106">
  <g id="Group_135" data-name="Group 135" transform="translate(928 -1351)">
    <path id="Polygon_1" data-name="Polygon 1" d="M44.373,10.906a11,11,0,0,1,17.254,0L91.9,49.176A11,11,0,0,1,83.273,67H22.727A11,11,0,0,1,14.1,49.176Z" transform="translate(-928 1457) rotate(-90)" fill="#0b612d"/>
    <path id="Polygon_2" data-name="Polygon 2" d="M44.373,10.906a11,11,0,0,1,17.254,0L91.9,49.176A11,11,0,0,1,83.273,67H22.727A11,11,0,0,1,14.1,49.176Z" transform="translate(-849 1457) rotate(-90)" fill="#0b612d"/>
    <path id="Polygon_3" data-name="Polygon 3" d="M44.373,10.906a11,11,0,0,1,17.254,0L91.9,49.176A11,11,0,0,1,83.273,67H22.727A11,11,0,0,1,14.1,49.176Z" transform="translate(-770 1457) rotate(-90)" fill="#0b612d"/>
  </g>
</svg>
