<svg xmlns="http://www.w3.org/2000/svg" width="47.704" height="45.526" viewBox="0 0 47.704 45.526"><path d="M1918.514,963.584c0,1.881,0,2.821,0,2.872a5.313,5.313,0,0,1-5.3,5.311q-9.066.051-18.133.075a.823.823,0,0,0-.678.294q-5.092,5.627-10.2,11.238c-.1.11-.174.26-.348.3a.861.861,0,0,1-.035-.425c0-3.658-.007-7.315.006-10.974,0-.34-.078-.442-.432-.44-2.372.017-4.746.013-7.12.008a5.3,5.3,0,0,1-5.455-5.469q0-11.366,0-22.734a5.422,5.422,0,0,1,5.6-5.455c1.656.051,5.324.03,10.425-.034,15.389.027,25.71.034,26.66.006a2.084,2.084,0,0,1,.51.018,5.4,5.4,0,0,1,4.5,5.352c0,4.92,0,7.7,0,13.33,0,1.117,0,2.664,0,4.742v.212C1918.512,962.33,1918.514,963.048,1918.514,963.584Zm-11.89-11.358a3.24,3.24,0,0,0-3.3,3.2,3.26,3.26,0,1,0,3.3-3.2Zm-8.717,3.263a3.256,3.256,0,1,0-6.513-.006,3.292,3.292,0,0,0,3.26,3.261A3.259,3.259,0,0,0,1897.907,955.489Zm-15.2-3.263a3.225,3.225,0,0,0-3.231,3.26,3.263,3.263,0,0,0,3.253,3.259,3.3,3.3,0,0,0,3.266-3.26A3.258,3.258,0,0,0,1882.707,952.226Z" transform="translate(-1870.81 -938.152)" fill="#fff"/></svg>