<svg xmlns="http://www.w3.org/2000/svg" width="56.821" height="44.645" viewBox="0 0 56.821 44.645">
  <g id="black-back-closed-envelope-shape-svgrepo-com" transform="translate(0 -59.013)">
    <g id="Group_200" data-name="Group 200" transform="translate(0 59.013)">
      <path id="Path_528" data-name="Path 528" d="M66.945,340.883a4.856,4.856,0,0,0,3.325-1.254l-16.1-16.1c-.386.277-.761.546-1.114.8q-1.807,1.331-2.933,2.077a18.074,18.074,0,0,1-3,1.522,9.133,9.133,0,0,1-3.488.777h-.063a9.13,9.13,0,0,1-3.488-.777,18.018,18.018,0,0,1-3-1.522q-1.126-.745-2.933-2.077c-.336-.246-.708-.516-1.111-.806l-16.1,16.1a4.858,4.858,0,0,0,3.325,1.254Z" transform="translate(-15.198 -296.238)" fill="#95c11f"/>
      <path id="Path_529" data-name="Path 529" d="M3.2,201.314A16.811,16.811,0,0,1,0,198.555v24.493l14.189-14.189Q9.931,205.887,3.2,201.314Z" transform="translate(0 -184.16)" fill="#95c11f"/>
      <path id="Path_530" data-name="Path 530" d="M424.322,201.314q-6.478,4.385-11.012,7.551l14.183,14.184V198.555A17.5,17.5,0,0,1,424.322,201.314Z" transform="translate(-370.671 -184.16)" fill="#95c11f"/>
      <path id="Path_531" data-name="Path 531" d="M51.752,59.013H5.079a4.528,4.528,0,0,0-3.757,1.648A6.4,6.4,0,0,0,.006,64.783,7.409,7.409,0,0,0,1.75,69.112a15.731,15.731,0,0,0,3.71,3.662q1.078.761,6.5,4.519c1.952,1.352,3.649,2.531,5.107,3.548,1.243.866,2.315,1.616,3.2,2.239.1.071.261.186.474.337l.874.63q1.03.745,1.712,1.205t1.649,1.03a9.619,9.619,0,0,0,1.823.856,5.045,5.045,0,0,0,1.585.285h.063a5.047,5.047,0,0,0,1.585-.285,9.6,9.6,0,0,0,1.823-.856q.967-.571,1.649-1.03t1.712-1.205c.356-.258.645-.466.874-.629.212-.152.372-.266.474-.338l3.209-2.23q3.943-2.74,11.631-8.076a15.081,15.081,0,0,0,3.868-3.9,8.389,8.389,0,0,0,1.553-4.788,5.115,5.115,0,0,0-5.074-5.073Z" transform="translate(-0.005 -59.013)" fill="#95c11f"/>
    </g>
  </g>
</svg>
