<svg xmlns="http://www.w3.org/2000/svg" xmlns:xlink="http://www.w3.org/1999/xlink" width="438.616" height="438.099" viewBox="0 0 438.616 438.099"><defs><clipPath id="a"><path d="M438.1,0h0a0,0,0,0,1,0,0V438.616a0,0,0,0,1,0,0H0a0,0,0,0,1,0,0V438.1A438.1,438.1,0,0,1,438.1,0Z" fill="none"/></clipPath></defs><g transform="translate(0 438.099) rotate(-90)"><g transform="translate(0 0)" clip-path="url(#a)"><g transform="translate(11.346 12.499)"><path d="M1590.826,860.344c9.182,2.163,13.869,10.371,5.963,20.912-90.11,120.152-133.815,191.354-176.821,354.691-.074.227-.146.452-.221.678-35.068,122.124-86.9,126.817-146.036,145.571-91.243,28.937-367.428,14.477-367.428,14.477a6.23,6.23,0,0,1-4.826-2.38c-11.886-14.7-2.874-100.319,65.078-151.711h0a273.61,273.61,0,0,1,21.5-18.1c52.132-39.463,115.86-57.526,182.76-62.151,0,0,25.751.97,24.305-8.921h0a2.586,2.586,0,0,0-.314-1.044c-1.395-2.707-7.871-5.966-23.381-9.791-40.962-10.1-95.1-2.245-135.5,7.346-42.843,10.168-83.242,28.826-117.28,54.5-55.647,41.97-88.6,100.3-107.9,162.413a10.473,10.473,0,0,1-9.126,7.19l-171.562,15.928c-7.627.709-13.5-6.232-11.082-13.1,0,0,35.331-98.937,37.054-103.468,36.167-102.05,103.536-246.467,213.4-326.909,38.846-30.774,130.572-71.5,210.535-72.337C1328.353,871.525,1587.942,860,1590.826,860.344Z" transform="translate(-618.4 -860.337)" fill="none" stroke="#18a338" stroke-miterlimit="10" stroke-width="1"/><path d="M1590.826,860.344c9.182,2.163,13.869,10.371,5.963,20.912-90.11,120.152-133.815,191.354-176.821,354.691-.074.227-.146.452-.221.678-35.068,122.124-86.9,126.817-146.036,145.571-91.243,28.937-367.428,14.477-367.428,14.477a6.23,6.23,0,0,1-4.826-2.38c-11.886-14.7-2.874-100.319,65.078-151.711h0a273.61,273.61,0,0,1,21.5-18.1c52.132-39.463,115.86-57.526,182.76-62.151,0,0,25.751.97,24.305-8.921h0a2.586,2.586,0,0,0-.314-1.044c-1.395-2.707-7.871-5.966-23.381-9.791-40.962-10.1-95.1-2.245-135.5,7.346-42.843,10.168-83.242,28.826-117.28,54.5-55.647,41.97-88.6,100.3-107.9,162.413a10.473,10.473,0,0,1-9.126,7.19l-171.562,15.928c-7.627.709-13.5-6.232-11.082-13.1,0,0,35.331-98.937,37.054-103.468,36.167-102.05,103.536-246.467,213.4-326.909,38.846-30.774,130.572-71.5,210.535-72.337C1328.353,871.525,1587.942,860,1590.826,860.344Z" transform="translate(-618.4 -860.337)" fill="none" stroke="#18a338" stroke-miterlimit="10" stroke-width="1"/><path d="M1605.886,881.012c0-3.806-3.721-5.358-5.776-5.924-2.582.038-14.681.493-31.011,1.109-77.027,2.9-281.635,10.611-479.2,12.689-45.222.475-89.7,13.66-119.044,24.637-35.17,13.155-68.27,30.6-88.541,46.654l-.071.057-.075.054C833.51,995.916,788.75,1047.7,749.13,1114.214c-29.755,49.95-56.22,107.382-78.659,170.7l-.038.1c-1.687,4.434-36.667,102.387-37.021,103.376a4.679,4.679,0,0,0-.269,1.548,4.947,4.947,0,0,0,1.681,3.609,6.007,6.007,0,0,0,4.67,1.5l171.561-15.928a5.624,5.624,0,0,0,4.957-3.81c10.4-33.484,24.152-63.74,40.863-89.928a285.788,285.788,0,0,1,68.746-74.912c34.276-25.853,75.451-44.99,119.075-55.343,70.553-16.747,113.867-13.233,137.778-7.337,20.336,5.015,24.764,8.862,26.521,12.271a7.441,7.441,0,0,1,.826,2.751,10.306,10.306,0,0,1,.083,1.294,9.619,9.619,0,0,1-3.087,7.042c-6.412,6.175-22.245,6.055-26.028,5.932-72.438,5.046-132.974,25.625-179.925,61.166a270.076,270.076,0,0,0-21.125,17.784l-.183.17-.2.15a173.622,173.622,0,0,0-52.779,66.321c-9.408,20.6-14.8,42.785-14.8,60.863,0,9.947,1.731,15.63,3.349,17.632a1.468,1.468,0,0,0,1.067.585h.127l.126.007c2.753.144,276.35,14.084,365.715-14.257,5.265-1.67,10.51-3.24,15.581-4.759,25.694-7.692,49.963-14.958,71.226-33.587,23.878-20.921,41.687-53.952,56.044-103.951l.052-.17.174-.536c21.168-80.368,43.1-140.329,71.094-194.4,27.609-53.321,61.22-101.453,106.5-161.829,2-2.664,3.054-5.174,3.054-7.257Z" transform="translate(-628.31 -870.251)" fill="none" stroke="#18a338" stroke-miterlimit="10" stroke-width="1"/><path d="M1611.023,890.955a.449.449,0,0,0-.01-.113,3.348,3.348,0,0,0-1.615-.963c-3.716.094-15.511.538-30.146,1.09-77.051,2.9-281.706,10.614-479.331,12.692-44.521.468-88.417,13.49-117.4,24.331-34.724,12.989-67.334,30.153-87.232,45.916l-.143.114-.161.117c-48.119,35.233-92.443,86.541-131.729,152.49-29.593,49.677-55.922,106.819-78.256,169.839l-.076.207c-1.643,4.321-35.533,99.214-36.943,103.163a.623.623,0,0,0,.074.079,1.211,1.211,0,0,0,.967.259l171.562-15.927a.9.9,0,0,0,.787-.432c10.532-33.894,24.463-64.542,41.4-91.093a290.6,290.6,0,0,1,69.91-76.171c34.805-26.252,76.6-45.681,120.87-56.187,71.494-16.97,115.622-13.351,140.052-7.326,21.044,5.19,26.951,9.492,29.66,14.75a12.258,12.258,0,0,1,1.335,4.44,15.1,15.1,0,0,1,.111,1.818,14.538,14.538,0,0,1-4.569,10.524c-7.375,7.1-22.743,7.48-29.286,7.289-71.382,5.008-130.963,25.254-177.1,60.181a265.337,265.337,0,0,0-20.745,17.465l-.364.339-.395.3a168.771,168.771,0,0,0-51.3,64.477c-9.131,19.993-14.367,41.445-14.367,58.855,0,7.313,1,11.559,1.728,13.478,22.939,1.121,277.419,12.819,362.361-14.12,5.264-1.67,10.491-3.235,15.545-4.748l.11-.033c25.176-7.537,48.956-14.656,69.427-32.592,23.15-20.282,40.494-52.582,54.583-101.649l.1-.331.132-.405c21.251-80.662,43.287-140.887,71.441-195.259,27.763-53.618,61.5-101.932,106.926-162.506C1610.474,893.259,1611.023,891.715,1611.023,890.955Z" transform="translate(-638.281 -880.193)" fill="none" stroke="#18a338" stroke-miterlimit="10" stroke-width="1"/><path d="M1617.421,905.245c-5.637.2-14.022.515-23.756.882-77.074,2.9-281.781,10.616-479.463,12.7-43.818.46-87.136,13.319-115.759,24.025-34.278,12.822-66.4,29.711-85.924,45.177l-.212.169-.246.179c-47.589,34.845-91.472,85.67-130.424,151.058-29.43,49.4-55.624,106.257-77.853,168.98l-.094.258c-1.23,3.233-21.264,59.267-34.54,96.433L831.835,1390c10.556-33.233,24.374-63.345,41.094-89.547A295.407,295.407,0,0,1,944,1223.022c35.334-26.651,77.75-46.373,122.664-57.031,72.434-17.193,117.377-13.469,142.326-7.317,20.234,4.99,28.818,9.5,32.8,17.23a17.065,17.065,0,0,1,1.843,6.125,19.912,19.912,0,0,1,.14,2.347,19.328,19.328,0,0,1-6.049,14.006c-8.336,8.027-23.856,8.875-32.536,8.645-70.324,4.968-128.959,24.884-174.288,59.2a260.446,260.446,0,0,0-20.364,17.145l-.545.508-.59.447a163.939,163.939,0,0,0-49.827,62.634c-8.853,19.385-13.931,40.105-13.931,56.847a50.256,50.256,0,0,0,.67,8.819c19.024.886,82.954,3.568,154.134,3.288,98.21-.385,168.4-6.387,202.989-17.356,5.278-1.674,10.5-3.238,15.552-4.751l.167-.05c24.67-7.386,47.959-14.358,67.639-31.6,22.42-19.644,39.3-51.212,53.122-99.348l.151-.494.089-.275c21.335-80.954,43.477-141.442,71.788-196.115C1539.479,1012.752,1572.789,964.849,1617.421,905.245Z" transform="translate(-652.511 -890.521)" fill="none" stroke="#18a338" stroke-miterlimit="10" stroke-width="1"/><path d="M1608.407,921.617c-77.082,2.9-281.837,10.619-479.594,12.7-43.118.453-85.856,13.148-114.117,23.719-33.831,12.655-65.464,29.268-84.616,44.439l-.28.224-.331.241c-47.057,34.456-90.5,84.8-129.119,149.626-29.269,49.132-55.327,105.7-77.45,168.121l-.132.362c-1.073,2.821-17.338,48.286-31.955,89.2l151.956-14.108c10.552-32.421,24.219-61.89,40.644-87.629a300.226,300.226,0,0,1,72.239-78.688c35.863-27.05,78.9-47.063,124.458-57.875,73.374-17.416,119.133-13.586,144.6-7.307,21.809,5.379,31.214,10.536,35.94,19.71a21.861,21.861,0,0,1,2.35,7.8,24.738,24.738,0,0,1,.169,2.881,24.122,24.122,0,0,1-7.531,17.489c-9.082,8.745-24.419,10.275-35.778,10-69.27,4.928-126.962,24.513-171.481,58.213a255.523,255.523,0,0,0-19.984,16.826l-.728.677-.785.595a159.106,159.106,0,0,0-48.35,60.79c-8.575,18.777-13.494,38.765-13.494,54.839,0,1.6.056,2.993.141,4.176,22.36.995,83.079,3.359,149.811,3.1,97.727-.384,167.42-6.307,201.547-17.13,5.294-1.679,10.517-3.243,15.569-4.757l.217-.065c24.153-7.231,46.959-14.059,65.848-30.607,21.692-19.005,38.108-49.842,51.662-97.046l.2-.656.047-.146c21.419-81.244,43.667-142,72.134-196.97,26.587-51.347,58.146-97.252,99.849-153.256C1617.988,921.256,1613.373,921.43,1608.407,921.617Z" transform="translate(-667.072 -901.18)" fill="none" stroke="#18a338" stroke-miterlimit="10" stroke-width="1"/><path d="M1623.151,937.124c-77.1,2.905-281.9,10.622-479.725,12.7-42.417.445-84.577,12.978-112.474,23.412-33.385,12.488-64.528,28.824-83.307,43.7l-.349.278-.417.3c-46.524,34.065-89.529,83.927-127.812,148.193-29.106,48.858-55.028,105.133-77.047,167.262l-.17.466c-.986,2.593-15.372,42.8-29.37,81.968L853.732,1402.3c10.537-31.618,24.044-60.44,40.169-85.709a305.036,305.036,0,0,1,73.4-79.947c36.393-27.45,80.05-47.755,126.252-58.72,74.313-17.64,120.888-13.7,146.874-7.3,23.385,5.768,33.611,11.574,39.08,22.19a26.68,26.68,0,0,1,2.858,9.492,29.593,29.593,0,0,1,.2,3.407,28.915,28.915,0,0,1-9.012,20.971c-5.664,5.453-17.027,11.84-39.014,11.356-68.218,4.887-124.969,24.141-168.68,57.229a250.6,250.6,0,0,0-19.6,16.506l-.91.848-.979.742a154.267,154.267,0,0,0-46.874,58.945c-8.216,17.991-12.962,37.046-13.055,52.373,25.579,1.091,82.634,3.142,145.1,2.9,97.244-.382,166.44-6.228,200.1-16.9,5.324-1.689,10.561-3.257,15.625-4.774l.234-.07c23.633-7.075,45.953-13.758,64.051-29.614,20.963-18.366,36.915-48.472,50.2-94.744l.254-.831c21.5-81.533,43.858-142.553,72.48-197.83,25.832-49.887,56.509-94.8,94.256-145.825Z" transform="translate(-681.633 -911.857)" fill="none" stroke="#18a338" stroke-miterlimit="10" stroke-width="1"/><path d="M1631.457,952.874c-81.594,3.071-280.787,10.437-473.418,12.463-41.717.438-83.3,12.807-110.832,23.106-32.939,12.321-63.593,28.381-82,42.962l-.417.333-.5.367c-45.991,33.676-88.557,83.055-126.507,146.76-28.944,48.587-54.731,104.573-76.643,166.4l-.208.57c-.781,2.053-10.729,29.812-26.785,74.735l130.573-12.122c10.51-30.817,23.849-58.993,39.67-83.786a309.845,309.845,0,0,1,74.567-81.207c36.922-27.849,81.2-48.446,128.046-59.563,75.253-17.863,122.644-13.822,149.148-7.287,24.961,6.156,36.008,12.612,42.22,24.67a31.486,31.486,0,0,1,3.368,11.2,34.173,34.173,0,0,1,.224,3.912,33.708,33.708,0,0,1-10.493,24.454c-6.3,6.064-18.736,13.181-42.245,12.712-67.17,4.844-122.98,23.768-165.885,56.245a245.849,245.849,0,0,0-19.224,16.187l-1.093,1.018-1.173.889a149.436,149.436,0,0,0-45.4,57.1c-7.11,15.572-11.543,31.948-12.447,45.736,29.069,1.19,82.047,2.92,140.074,2.692,96.761-.38,165.458-6.147,198.662-16.678,5.328-1.69,10.552-3.255,15.6-4.769l.332-.1c23.111-6.919,44.942-13.455,62.248-28.618,20.234-17.727,35.722-47.1,48.741-92.442l.25-.822c21.589-81.848,44.055-143.14,72.838-198.728C1569.13,1040.329,1600.732,994.7,1631.457,952.874Z" transform="translate(-696.196 -922.534)" fill="none" stroke="#18a338" stroke-miterlimit="10" stroke-width="1"/><path d="M1636.224,968.752c-76.841,2.882-274.87,10.106-463.569,12.091-41.015.431-82.016,12.636-109.19,22.8-32.493,12.154-62.657,27.938-80.69,42.223l-.486.388-.588.429c-45.46,33.287-87.587,82.184-125.2,145.329-28.784,48.317-54.434,104.014-76.241,165.543l-.247.674c-.714,1.878-9.7,26.937-24.2,67.5L875.73,1414.6c10.472-30.024,23.635-57.552,39.148-81.862a314.671,314.671,0,0,1,75.731-82.465c37.45-28.248,82.349-49.136,129.841-60.407,76.194-18.086,124.4-13.94,151.421-7.277,26.536,6.545,38.406,13.649,45.36,27.15a36.278,36.278,0,0,1,3.879,12.91A38.645,38.645,0,0,1,1309.386,1255c-6.929,6.672-20.438,14.517-45.469,14.067-66.124,4.8-121,23.393-163.1,55.262a241.011,241.011,0,0,0-18.843,15.867l-1.277,1.188-1.367,1.037a144.6,144.6,0,0,0-43.921,55.258c-6.044,13.237-10.074,26.923-11.555,39.1,28.3,1.108,79.368,2.7,134.766,2.484,121.636-.478,174.387-9.21,197.22-16.452,5.366-1.7,10.608-3.273,15.678-4.792l.337-.1c22.591-6.764,43.931-13.153,60.445-27.622,19.505-17.088,34.529-45.731,47.28-90.14l.245-.809c21.676-82.158,44.252-143.731,73.2-199.63C1578.583,1050.361,1608.993,1006.141,1636.224,968.752Z" transform="translate(-710.76 -933.206)" fill="none" stroke="#18a338" stroke-miterlimit="10" stroke-width="1"/><path d="M1641.049,984.614c-173.35,6.436-325.975,10.379-453.778,11.724-40.314.423-80.737,12.466-107.548,22.494-32.046,11.986-61.721,27.495-79.381,41.484l-.554.442-.673.491c-44.93,32.9-86.617,81.314-123.9,143.9-28.622,48.046-54.137,103.454-75.837,164.684l-.285.777c-.651,1.713-8.667,24.066-21.611,60.269l109.282-10.145a395.556,395.556,0,0,1,38.6-79.935,319.479,319.479,0,0,1,76.9-83.724c37.979-28.647,83.5-49.828,131.635-61.252,77.134-18.309,126.154-14.057,153.694-7.267,28.111,6.933,40.8,14.687,48.5,29.629a41.1,41.1,0,0,1,4.389,14.619,43.477,43.477,0,0,1-13.179,36.34c-7.559,7.278-22.136,15.85-48.687,15.421-65.079,4.757-119.014,23.018-160.313,54.28a236.029,236.029,0,0,0-18.463,15.547l-1.46,1.358-1.561,1.184a139.767,139.767,0,0,0-42.445,53.415A138.174,138.174,0,0,0,1044,1442.814c27.467,1.025,76.5,2.481,129.167,2.275,121.028-.476,173.266-9.086,195.777-16.226,5.437-1.725,10.681-3.3,15.752-4.814l.341-.1c22.071-6.608,42.92-12.85,58.643-26.626,18.776-16.45,33.335-44.361,45.819-87.838l.24-.794c21.763-82.472,44.45-144.325,73.556-200.534C1587.972,1060.505,1617.136,1017.777,1641.049,984.614Z" transform="translate(-725.325 -943.867)" fill="none" stroke="#18a338" stroke-miterlimit="10" stroke-width="1"/><path d="M1645.942,1000.457c-169.3,6.222-318.654,10.044-444.054,11.363-39.614.416-79.457,12.3-105.906,22.188-31.6,11.82-60.786,27.052-78.073,40.746l-.622.5-.759.553c-44.4,32.509-85.646,80.443-122.593,142.465-28.459,47.773-53.839,102.892-75.434,163.825l-.323.881c-.593,1.56-7.643,21.214-19.024,53.036l98.67-9.16a398.75,398.75,0,0,1,38.034-78.006,324.285,324.285,0,0,1,78.06-84.984c38.508-29.046,84.648-50.518,133.43-62.1,78.074-18.532,127.909-14.175,155.967-7.257,29.687,7.322,43.2,15.724,51.641,32.109a45.9,45.9,0,0,1,4.9,16.328,47.5,47.5,0,0,1,.3,5.426,48.086,48.086,0,0,1-14.936,34.9c-8.187,7.883-23.83,17.181-51.9,16.776-64.037,4.711-117.039,22.643-157.537,53.3a231.064,231.064,0,0,0-18.083,15.227l-1.643,1.528-1.754,1.33A134.933,134.933,0,0,0,1073.337,1423a137.227,137.227,0,0,0-8.893,25.837c26.566.941,73.448,2.26,123.272,2.065,120.418-.474,172.145-8.962,194.335-16,5.488-1.74,10.743-3.314,15.827-4.837l.344-.1c21.552-6.453,41.91-12.548,56.841-25.63,18.047-15.812,32.143-42.991,44.359-85.537l.235-.777c21.851-82.787,44.65-144.922,73.915-201.439C1597.315,1070.727,1625.228,1029.523,1645.942,1000.457Z" transform="translate(-739.891 -954.516)" fill="none" stroke="#18a338" stroke-miterlimit="10" stroke-width="1"/><path d="M1650.919,1016.28c-165.317,6.012-311.43,9.715-434.412,11.009-38.912.408-78.176,12.125-104.263,21.882-31.154,11.653-59.85,26.609-76.764,40.007l-.69.551-.846.617c-43.865,32.119-84.674,79.571-121.286,141.032-28.3,47.5-53.541,102.331-75.031,162.966l-.36.985c-.533,1.4-6.615,18.35-16.436,45.8l88.081-8.177a401.927,401.927,0,0,1,37.442-76.075,329.1,329.1,0,0,1,79.224-86.242c39.038-29.445,85.8-51.209,135.225-62.939,79.016-18.756,129.665-14.293,158.24-7.247,31.262,7.71,45.6,16.761,54.781,34.588a50.713,50.713,0,0,1,5.41,18.036,51.719,51.719,0,0,1,.328,5.931,52.88,52.88,0,0,1-16.417,38.383c-8.813,8.486-25.521,18.508-55.107,18.13-63,4.665-115.066,22.266-154.764,52.315a226.477,226.477,0,0,0-17.7,14.908l-1.826,1.7-1.947,1.477a130.1,130.1,0,0,0-39.494,49.728,137.267,137.267,0,0,0-7.106,19.205c25.589.856,70.179,2.038,117.069,1.854,119.809-.471,171.025-8.838,192.893-15.774,5.522-1.751,10.794-3.33,15.893-4.857l.355-.106c21.032-6.3,40.9-12.245,55.04-24.634,17.318-15.173,30.949-41.621,42.9-83.235l.229-.76c21.941-83.111,44.848-145.515,74.275-202.346C1601.349,1091.194,1623.335,1055.553,1650.919,1016.28Z" transform="translate(-754.46 -965.151)" fill="none" stroke="#18a338" stroke-miterlimit="10" stroke-width="1"/><path d="M1655.984,1032.081c-161.394,5.808-304.28,9.393-424.856,10.662-38.211.4-76.9,11.955-102.621,21.576-30.706,11.486-58.914,26.166-75.456,39.269l-.759.606-.934.68c-43.331,31.728-83.7,78.7-119.978,139.6-28.135,47.228-53.244,101.768-74.627,162.106l-.4,1.089c-.466,1.223-5.581,15.473-13.847,38.569l77.513-7.2a405.155,405.155,0,0,1,36.828-74.142,333.921,333.921,0,0,1,80.388-87.5c39.567-29.844,86.947-51.9,137.019-63.783,79.956-18.979,131.42-14.411,160.514-7.237,32.837,8.1,47.994,17.8,57.921,37.068a55.5,55.5,0,0,1,5.921,19.744,56.143,56.143,0,0,1,.354,6.437,57.673,57.673,0,0,1-17.9,41.866c-9.438,9.086-27.209,19.831-58.309,19.483-61.96,4.618-113.1,21.888-152,51.333a221.741,221.741,0,0,0-17.322,14.588l-2.009,1.869-2.14,1.623a125.269,125.269,0,0,0-38.018,47.885,134.142,134.142,0,0,0-5,12.572c28.111.888,68.32,1.811,110.545,1.645,119.2-.469,169.9-8.714,191.45-15.547,5.578-1.769,10.859-3.351,15.968-4.88l.353-.105c20.517-6.143,39.893-11.944,53.243-23.64,16.589-14.535,29.756-40.251,41.437-80.933l.222-.739c22.027-83.426,45.046-146.113,74.635-203.255C1610.563,1101.645,1630.842,1068.427,1655.984,1032.081Z" transform="translate(-769.029 -975.771)" fill="none" stroke="#18a338" stroke-miterlimit="10" stroke-width="1"/><path d="M1661.142,1047.862c-157.489,5.606-297.2,9.078-415.392,10.322-37.508.393-75.615,11.783-100.978,21.27-30.261,11.319-57.98,25.723-74.147,38.531l-.828.662-1.022.744c-42.8,31.337-82.726,77.824-118.669,138.164-27.974,46.958-52.947,101.209-74.224,161.247l-.437,1.2c-.194.51-1.716,4.689-11.256,31.334l66.966-6.217a408.451,408.451,0,0,1,36.192-72.207,338.724,338.724,0,0,1,81.552-88.761c40.1-30.243,88.1-52.591,138.813-64.628,80.9-19.2,133.175-14.528,162.787-7.227,34.412,8.487,50.391,18.836,61.061,39.548a62.33,62.33,0,0,1,6.812,28.395,62.467,62.467,0,0,1-19.38,45.348c-10.06,9.686-28.893,21.151-61.507,20.836-60.925,4.57-111.131,21.51-149.234,50.351a216.82,216.82,0,0,0-16.941,14.268l-2.193,2.039-2.333,1.77a120.439,120.439,0,0,0-36.542,46.042q-1.343,2.941-2.536,5.937c26.551.786,64.229,1.593,103.668,1.438,118.588-.467,168.782-8.589,190.008-15.321,5.623-1.783,10.919-3.37,16.042-4.9l.349-.1c20-5.989,38.889-11.644,51.448-22.647,15.86-13.9,28.563-38.881,39.977-78.631l.215-.719c22.115-83.742,45.245-146.709,75-204.164C1619.762,1112.115,1638.366,1081.316,1661.142,1047.862Z" transform="translate(-783.601 -986.378)" fill="none" stroke="#18a338" stroke-miterlimit="10" stroke-width="1"/><path d="M1666.4,1063.621c-153.634,5.41-290.193,8.77-406.019,9.988-36.808.386-74.336,11.613-99.337,20.964-29.815,11.152-57.045,25.28-72.839,37.792l-.9.717-1.109.808c-42.262,30.946-81.752,76.951-117.361,136.729-27.812,46.686-52.649,100.648-73.822,160.388l-.476,1.3c-.13.341-1.154,3.136-8.664,24.1l56.44-5.24a411.771,411.771,0,0,1,35.534-70.27,343.549,343.549,0,0,1,82.716-90.02c40.626-30.643,89.248-53.283,140.608-65.471,81.837-19.425,134.932-14.646,165.061-7.217,35.988,8.876,52.788,19.874,64.2,42.027a67.179,67.179,0,0,1,7.349,30.609,67.26,67.26,0,0,1-20.861,48.83c-10.681,10.284-30.57,22.47-64.7,22.19-59.89,4.521-109.169,21.13-146.478,49.37a212.042,212.042,0,0,0-16.561,13.949l-2.376,2.21-2.526,1.916a115.513,115.513,0,0,0-34.745,43.5c24.9.684,59.893,1.376,96.394,1.233,117.978-.464,167.661-8.465,188.566-15.1,5.671-1.8,10.981-3.389,16.117-4.926l.344-.1c19.486-5.834,37.886-11.344,49.653-21.653,15.132-13.257,27.371-37.511,38.516-76.329l.209-.7c22.2-84.061,45.444-147.311,75.355-205.075C1628.946,1122.605,1645.9,1094.224,1666.4,1063.621Z" transform="translate(-798.176 -996.97)" fill="none" stroke="#18a338" stroke-miterlimit="10" stroke-width="1"/><path d="M1671.746,1079.36c-149.838,5.218-283.279,8.468-396.74,9.662-36.107.378-73.056,11.443-97.695,20.657-29.369,10.986-56.11,24.838-71.531,37.054l-.967.773-1.2.871c-41.728,30.555-80.778,76.078-116.052,135.295-27.649,46.412-52.351,100.085-73.418,159.529l-.515,1.407c-.072.19-.7,1.885-6.07,16.863l45.934-4.264a415.011,415.011,0,0,1,34.854-68.331,348.361,348.361,0,0,1,83.88-91.279c41.156-31.042,90.4-53.973,142.4-66.315,82.778-19.648,136.687-14.764,167.335-7.207,37.564,9.264,55.186,20.911,67.34,44.507a71.993,71.993,0,0,1,7.885,32.822,72.054,72.054,0,0,1-22.342,52.313c-11.3,10.881-32.246,23.786-67.886,23.543-58.859,4.47-107.211,20.75-143.725,48.389a207.135,207.135,0,0,0-16.181,13.629l-2.559,2.38-2.72,2.063a109.823,109.823,0,0,0-29.919,35.016c23.121.584,55.242,1.161,88.628,1.031,117.368-.462,166.54-8.341,187.124-14.869,5.727-1.816,11.047-3.409,16.192-4.949l.34-.1c18.97-5.679,36.883-11.043,47.858-20.659,14.4-12.618,26.177-36.141,37.056-74.027l.2-.672c22.291-84.378,45.645-147.911,75.717-205.988A878.587,878.587,0,0,1,1671.746,1079.36Z" transform="translate(-812.754 -1007.549)" fill="none" stroke="#18a338" stroke-miterlimit="10" stroke-width="1"/><path d="M1677.2,1095.076c-146.09,5.031-276.444,8.174-387.558,9.343-35.407.371-71.776,11.272-96.052,20.351-28.924,10.819-55.175,24.4-70.222,36.315l-1.038.829-1.285.935c-41.194,30.164-79.8,75.2-114.743,133.86-27.488,46.141-52.054,99.526-73.015,158.67l-.553,1.509c-.034.092-.4,1.06-3.474,9.632l35.446-3.291a418.4,418.4,0,0,1,34.152-66.389A353.165,353.165,0,0,1,1083.9,1304.3c41.685-31.441,91.547-54.664,144.2-67.159,83.719-19.872,138.443-14.882,169.609-7.2,39.139,9.653,57.582,21.948,70.48,46.987a74.67,74.67,0,0,1,7.958,26.551,73.8,73.8,0,0,1,.463,8.485,76.846,76.846,0,0,1-23.824,55.8c-11.919,11.475-33.921,25.1-71.071,24.9-57.823,4.42-105.256,20.37-140.976,47.408a202.221,202.221,0,0,0-15.8,13.309l-2.743,2.55-2.913,2.21a104.382,104.382,0,0,0-24.461,26.531c21.192.483,50.195.948,80.23.831,116.758-.46,165.419-8.217,185.681-14.643,5.747-1.823,11.071-3.416,16.219-4.958l.382-.115c18.456-5.526,35.882-10.743,46.066-19.666,13.673-11.98,24.984-34.771,35.595-71.726l.194-.649c22.379-84.7,45.844-148.511,76.078-206.9C1647.274,1143.647,1661.033,1120.1,1677.2,1095.076Z" transform="translate(-827.339 -1018.112)" fill="none" stroke="#18a338" stroke-miterlimit="10" stroke-width="1"/><path d="M1682.767,1110.772c-142.4,4.848-269.7,7.885-378.474,9.03-34.705.364-70.5,11.1-94.41,20.046-28.477,10.653-54.24,23.952-68.913,35.576l-1.107.885-1.373,1c-40.659,29.772-78.828,74.329-113.434,132.425C997.73,1355.6,973.3,1408.7,952.443,1467.543l-.57,1.557c-.028.076-.181.49-.89,2.453l24.971-2.318a421.791,421.791,0,0,1,33.43-64.446,357.981,357.981,0,0,1,86.209-93.8c42.213-31.84,92.7-55.355,145.99-68,84.659-20.1,140.2-15,171.883-7.187,40.714,10.041,59.979,22.985,73.62,49.466a79.466,79.466,0,0,1,8.468,28.258,78.071,78.071,0,0,1,.49,8.992,81.639,81.639,0,0,1-25.3,59.278c-12.536,12.07-35.586,26.409-74.249,26.248-56.8,4.37-103.306,19.99-138.233,46.428a197.255,197.255,0,0,0-15.421,12.989l-2.926,2.721-3.106,2.356a98.505,98.505,0,0,0-18.165,18.042c19.051.383,44.611.737,70.994.634,116.148-.458,164.3-8.093,184.239-14.417,5.778-1.833,11.116-3.431,16.279-4.976l.389-.117c17.941-5.371,34.88-10.443,44.273-18.673,12.945-11.342,23.791-33.4,34.134-69.424l.186-.624c22.467-85.017,46.044-149.115,76.439-207.814C1656.429,1154.2,1668.637,1133.061,1682.767,1110.772Z" transform="translate(-841.939 -1028.662)" fill="none" stroke="#18a338" stroke-miterlimit="10" stroke-width="1"/><path d="M1688.447,1126.446c-138.759,4.67-263.034,7.6-369.49,8.725-34,.356-69.217,10.931-92.768,19.739-28.032,10.486-53.3,23.51-67.6,34.838l-1.176.94-1.461,1.063c-40.125,29.381-77.853,73.455-112.125,130.99-26.68,44.784-50.593,96.527-71.1,153.831l14.51-1.347a425.161,425.161,0,0,1,32.687-62.5,362.8,362.8,0,0,1,87.373-95.056c42.742-32.239,93.845-56.045,147.785-68.847,85.6-20.318,141.954-15.118,174.157-7.177,42.288,10.43,62.375,24.023,76.76,51.946a84.266,84.266,0,0,1,8.977,29.965,82.309,82.309,0,0,1,.516,9.5,86.432,86.432,0,0,1-26.786,62.76c-13.152,12.663-37.255,27.718-77.424,27.6-55.771,4.319-101.357,19.609-135.494,45.448a192.355,192.355,0,0,0-15.04,12.669l-3.109,2.891-3.3,2.5a90.132,90.132,0,0,0-10.7,9.549c16.62.283,38.3.53,60.593.443,115.538-.455,163.177-7.969,182.8-14.191,5.819-1.845,11.175-3.449,16.354-5l.381-.115c17.427-5.217,33.88-10.143,42.483-17.68,12.216-10.7,22.6-32.032,32.674-67.123l.178-.6c22.556-85.336,46.244-149.716,76.8-208.729C1665.579,1164.772,1676.269,1146.042,1688.447,1126.446Z" transform="translate(-856.552 -1039.197)" fill="none" stroke="#18a338" stroke-miterlimit="10" stroke-width="1"/><path d="M1694.244,1142.1c-135.171,4.5-256.457,7.33-360.606,8.426-33.3.349-67.936,10.761-91.126,19.433-27.586,10.319-52.37,23.067-66.3,34.1l-1.246,1-1.549,1.127c-39.59,28.989-76.878,72.581-110.816,129.555-25.4,42.639-48.3,91.669-68.115,145.841l4.063-.377a428.478,428.478,0,0,1,31.924-60.555,367.615,367.615,0,0,1,88.537-96.315c43.271-32.638,94.995-56.736,149.579-69.691,86.54-20.541,143.71-15.235,176.43-7.167,22.514,5.553,38.057,11.753,50.4,20.1,12.383,8.38,21.758,19.286,29.5,34.322a89.065,89.065,0,0,1,9.484,31.644,87.015,87.015,0,0,1,.546,10.033,91.226,91.226,0,0,1-28.267,66.242c-13.766,13.254-38.919,29.024-80.594,28.952-54.746,4.266-99.411,19.226-132.758,44.467a187.6,187.6,0,0,0-14.66,12.35l-3.292,3.062-3.492,2.649q-.683.516-1.358,1.05c17.029.229,33.23.315,48.307.256,114.928-.453,162.056-7.844,181.354-13.965,5.851-1.855,11.221-3.463,16.414-5.018l.385-.116c16.915-5.064,32.883-9.844,40.694-16.688,11.487-10.065,21.405-30.662,31.213-64.821l.17-.573c22.645-85.658,46.445-150.32,77.162-209.642C1674.727,1175.368,1683.932,1159.042,1694.244,1142.1Z" transform="translate(-871.182 -1049.718)" fill="none" stroke="#18a338" stroke-miterlimit="10" stroke-width="1"/><path d="M1744.464,1157.731c-131.635,4.327-249.964,7.063-351.826,8.135-32.6.342-66.656,10.59-89.484,19.127-27.14,10.152-51.435,22.624-64.988,33.36l-1.315,1.052-1.638,1.192c-39.055,28.6-75.9,71.706-109.507,128.12a791.1,791.1,0,0,0-43.512,84.865q1.564-2.537,3.156-5.03a372.441,372.441,0,0,1,89.7-97.574c43.8-33.036,96.145-57.427,151.373-70.534,87.482-20.765,145.466-15.353,178.7-7.157,23.093,5.7,39.115,12.109,51.948,20.793,13.079,8.852,22.96,20.326,31.092,36.112a93.87,93.87,0,0,1,9.995,33.349,91.633,91.633,0,0,1,.573,10.542,96.019,96.019,0,0,1-29.748,69.725c-14.38,13.844-40.581,30.328-83.761,30.3-53.722,4.212-97.468,18.843-130.027,43.487-4.324,3.274-8.587,6.824-12.7,10.571,12.295.115,24.111.151,35.266.108,114.318-.451,160.935-7.72,179.911-13.739,5.911-1.875,11.289-3.484,16.49-5.041l.375-.113c16.4-4.911,31.885-9.545,38.905-15.7,10.758-9.427,20.213-29.293,29.753-62.519l.161-.544c22.735-85.987,46.644-150.924,77.524-210.56C1728.177,1185.982,1735.928,1172.063,1744.464,1157.731Z" transform="translate(-930.131 -1060.225)" fill="none" stroke="#18a338" stroke-miterlimit="10" stroke-width="1"/><path d="M1793.728,1173.342c-128.146,4.162-243.551,6.8-343.151,7.85-31.9.334-65.376,10.419-87.841,18.821-26.694,9.986-50.5,22.18-63.68,32.622l-1.385,1.106-1.727,1.256c-38.52,28.206-74.927,70.832-108.2,126.685q-9.944,16.691-19.427,34.825a370.933,370.933,0,0,1,61.708-58.9c44.329-33.435,97.294-58.117,153.167-71.378,88.422-20.988,147.222-15.471,180.979-7.147,23.673,5.839,40.172,12.465,53.5,21.483,13.778,9.324,24.162,21.368,32.68,37.9a98.659,98.659,0,0,1,10.5,35.056,95.877,95.877,0,0,1,.6,11.049,100.813,100.813,0,0,1-31.229,73.207c-14.993,14.435-42.234,31.632-86.924,31.655-52.7,4.157-95.526,18.458-127.3,42.508q-1.283.971-2.558,1.976c7.646.037,15.072.042,22.19.015,113.708-.449,159.813-7.6,178.469-13.513,5.934-1.882,11.319-3.494,16.527-5.053l.4-.121c15.194-4.549,30.89-9.248,37.119-14.7,9.892-8.667,19.146-28.365,28.292-60.217l.153-.514c22.823-86.306,46.844-151.528,77.887-211.479C1780.548,1196.618,1786.881,1185.1,1793.728,1173.342Z" transform="translate(-988.019 -1070.717)" fill="none" stroke="#18a338" stroke-miterlimit="10" stroke-width="1"/><path d="M1834.155,1188.931c-124.691,4-237.223,6.548-334.581,7.572-31.2.327-64.1,10.249-86.2,18.515-26.248,9.819-49.564,21.738-62.371,31.883l-1.454,1.162-1.816,1.321c-37.871,27.731-73.735,69.7-106.591,124.753a372.745,372.745,0,0,1,34.922-29.91c44.857-33.834,98.443-58.808,154.962-72.222,89.363-21.211,148.978-15.589,183.253-7.137,24.251,5.982,41.229,12.82,55.051,22.172,14.475,9.8,25.364,22.408,34.268,39.691a103.452,103.452,0,0,1,11.015,36.762,100.255,100.255,0,0,1,.626,11.557,105.6,105.6,0,0,1-32.71,76.689c-15.6,15.023-43.9,32.932-90.083,33.007-46.565,3.7-85.2,15.406-115.062,34.847q3.642,0,7.182-.016c113.1-.447,158.692-7.472,177.027-13.287,5.981-1.9,11.38-3.513,16.6-5.076l.388-.117c14.019-4.2,29.895-8.95,35.332-13.713,9.045-7.926,18.072-27.411,26.831-57.915l.144-.486c22.911-86.628,47.043-152.13,78.249-212.4C1823.956,1207.278,1828.9,1198.166,1834.155,1188.931Z" transform="translate(-1036.965 -1081.195)" fill="none" stroke="#18a338" stroke-miterlimit="10" stroke-width="1"/><path d="M1871.611,1204.5c-121.3,3.844-230.982,6.3-326.117,7.3-30.5.319-62.817,10.078-84.557,18.209-25.8,9.652-48.629,21.295-61.062,31.144l-1.523,1.218-1.9,1.386c-30.472,22.312-59.673,54.056-87.06,94.6q4.772-3.851,9.636-7.521c45.386-34.232,99.592-59.5,156.756-73.066,90.3-21.434,150.734-15.707,185.527-7.127,24.83,6.125,42.287,13.176,56.6,22.862,15.173,10.269,26.566,23.45,35.855,41.481a108.245,108.245,0,0,1,11.525,38.467,104.646,104.646,0,0,1,.653,12.065,110.4,110.4,0,0,1-34.192,80.171c-16.214,15.611-45.547,34.231-93.237,34.358-37.907,3.027-70.478,11.454-97.117,25.1,104.467-.836,147.189-7.472,164.6-13,6.026-1.911,11.441-3.532,16.677-5.1l.374-.113c12.209-3.655,28.9-8.653,33.546-12.722,5.731-5.022,14.785-18.747,25.371-55.614l.135-.458c23-86.947,47.243-152.733,78.611-213.312C1864.272,1217.953,1867.868,1211.245,1871.611,1204.5Z" transform="translate(-1082.833 -1091.66)" fill="none" stroke="#18a338" stroke-miterlimit="10" stroke-width="1"/><path d="M1908.531,1220.049c-117.961,3.692-224.833,6.059-317.76,7.037-29.8.312-61.537,9.907-82.915,17.9-25.356,9.485-47.694,20.852-59.754,30.406l-1.593,1.273-1.993,1.45c-23.376,17.116-46.12,40.024-67.842,68.3a432.664,432.664,0,0,1,143.214-62.9c91.245-21.657,152.49-15.824,187.8-7.117,25.409,6.267,43.344,13.531,58.154,23.552,15.871,10.741,27.769,24.491,37.443,43.271a113.036,113.036,0,0,1,12.035,40.173,109,109,0,0,1,.679,12.573,115.191,115.191,0,0,1-35.673,83.654c-16.824,16.2-47.2,35.529-96.388,35.708-27.364,2.2-51.948,7.271-73.4,15.122,86.862-1.574,123.669-7.527,139.223-12.46,6.069-1.925,11.5-3.55,16.753-5.122l.359-.109c9.766-2.924,27.908-8.356,31.761-11.731,4.293-3.762,13.108-15.69,23.91-53.312l.126-.426c23.087-87.267,47.444-153.339,78.974-214.232C1903.927,1228.649,1906.2,1224.345,1908.531,1220.049Z" transform="translate(-1128.059 -1102.111)" fill="none" stroke="#18a338" stroke-miterlimit="10" stroke-width="1"/><path d="M1947.1,1235.578c-114.674,3.544-218.771,5.825-309.507,6.779-29.1.3-60.257,9.737-81.273,17.6-24.91,9.319-46.759,20.41-58.445,29.667l-1.662,1.328-2.082,1.515c-16.252,11.9-32.283,26.744-47.868,44.307a442.722,442.722,0,0,1,119.28-47.523c92.186-21.881,154.245-15.942,190.074-7.107,25.989,6.411,44.4,13.887,59.706,24.242,16.569,11.214,28.971,25.532,39.032,45.061a117.837,117.837,0,0,1,12.545,41.879,113.232,113.232,0,0,1,.706,13.081,119.984,119.984,0,0,1-37.154,87.136c-17.432,16.784-48.845,36.825-99.536,37.059a321.458,321.458,0,0,0-32.572,4.258c57.839-2.421,84.473-7.15,96.729-11.037,6.119-1.941,11.563-3.57,16.829-5.146l.344-.1c6.669-2,26.916-8.058,29.978-10.741,3.134-2.747,11.6-13.217,22.449-51.011l.117-.4c23.176-87.591,47.645-153.946,79.337-215.151C1945.128,1239.344,1946.116,1237.453,1947.1,1235.578Z" transform="translate(-1174.835 -1112.548)" fill="none" stroke="#18a338" stroke-miterlimit="10" stroke-width="1"/><path d="M1923.211,1421.787q.1-2.472.1-4.959a117.514,117.514,0,0,0-.732-13.589,122.646,122.646,0,0,0-13.055-43.585c-10.446-20.277-23.354-35.164-40.62-46.85-15.8-10.689-34.69-18.379-61.257-24.932-36.347-8.962-99.222-15.006-192.349,7.1a451.91,451.91,0,0,0-93.353,33.518,272.413,272.413,0,0,1,25.9-21.69l2.171-1.579,1.731-1.384c11.313-8.962,32.673-19.777,57.137-28.929,20.654-7.724,51.234-16.993,79.631-17.29,88.55-.932,189.9-3.128,301.355-6.529C1963.9,1301.512,1942.77,1355.459,1923.211,1421.787Zm-33.261,92.79c-.965.688-5.453,2.912-26.19,9.175a128.767,128.767,0,0,0,20.911-16.306,127.084,127.084,0,0,0,22.187-28.377C1897.928,1506.257,1891.413,1513.268,1889.95,1514.577Z" transform="translate(-1225.699 -1122.972)" fill="none" stroke="#18a338" stroke-miterlimit="10" stroke-width="1"/><path d="M2042.481,1266.578c-108.279,3.261-206.911,5.374-293.3,6.283-27.7.289-57.7,9.4-77.988,16.984-24.017,8.985-44.888,19.523-55.828,28.19l-1.8,1.439-1.433,1.042a450.5,450.5,0,0,1,62.665-19.838c94.067-22.327,157.757-16.177,194.622-7.087,27.147,6.7,46.517,14.6,62.809,25.621,17.965,12.159,31.376,27.614,42.208,48.64a127.314,127.314,0,0,1,12.516,37.584C2003.409,1353.471,2021.339,1308.665,2042.481,1266.578Z" transform="translate(-1286.32 -1133.384)" fill="none" stroke="#18a338" stroke-miterlimit="10" stroke-width="1"/><path d="M2132.9,1282.05c-105.139,3.125-201.095,5.157-285.334,6.044-27,.282-56.418,9.225-76.346,16.678-4.388,1.642-8.667,3.334-12.792,5.054q6.783-1.837,13.585-3.452c95.007-22.55,159.512-16.295,196.9-7.077,27.725,6.839,47.575,14.953,64.361,26.311,18.663,12.632,32.579,28.656,43.8,50.43a132.68,132.68,0,0,1,8.948,21.9C2100.061,1355.716,2115.487,1317.6,2132.9,1282.05Z" transform="translate(-1384.646 -1143.784)" fill="none" stroke="#18a338" stroke-miterlimit="10" stroke-width="1"/><path d="M2527.342,1297.5c-59.991,1.759-116.967,3.16-170.423,4.191,5.566,1.019,10.7,2.134,15.411,3.3,28.3,6.982,48.632,15.309,65.912,27,19.36,13.1,33.781,29.7,45.384,52.22q2.422,4.688,4.486,9.564A921.574,921.574,0,0,1,2527.342,1297.5Z" transform="translate(-1786.913 -1154.171)" fill="none" stroke="#18a338" stroke-miterlimit="10" stroke-width="1"/><path d="M2594.032,1312.94c-43.675,1.263-86.013,2.341-126.384,3.219,19.1,6,34.282,13.107,47.727,22.2,19.8,13.4,34.6,30.294,46.5,53.106C2571.859,1363.64,2582.444,1337.787,2594.032,1312.94Z" transform="translate(-1861.338 -1164.546)" fill="none" stroke="#18a338" stroke-miterlimit="10" stroke-width="1"/><path d="M2638.031,1328.36c-31.926.91-63.257,1.724-93.535,2.43a162.569,162.569,0,0,1,25.24,13.934,140.673,140.673,0,0,1,42.863,45.546C2620.617,1368.6,2629,1348.2,2638.031,1328.36Z" transform="translate(-1912.99 -1174.91)" fill="none" stroke="#18a338" stroke-miterlimit="10" stroke-width="1"/><path d="M2669.708,1343.764c-22.609.635-44.986,1.224-66.816,1.758q4.5,2.641,8.8,5.552a143,143,0,0,1,39.023,38.808C2656.792,1373.931,2663.057,1358.717,2669.708,1343.764Z" transform="translate(-1952.24 -1185.264)" fill="none" stroke="#18a338" stroke-miterlimit="10" stroke-width="1"/><path d="M2694.3,1359.151c-14.666.406-29.277.794-43.664,1.159a147.9,147.9,0,0,1,30.866,29.876C2685.651,1379.576,2689.882,1369.317,2694.3,1359.151Z" transform="translate(-1984.329 -1195.605)" fill="none" stroke="#18a338" stroke-miterlimit="10" stroke-width="1"/><path d="M2714.52,1374.523c-7.605.208-15.208.41-22.753.608a150.208,150.208,0,0,1,15.923,15.94C2709.933,1385.48,2712.2,1379.994,2714.52,1374.523Z" transform="translate(-2011.975 -1205.937)" fill="none" stroke="#18a338" stroke-miterlimit="10" stroke-width="1"/><path d="M2728.212,1389.972q1.21,1.217,2.394,2.463.527-1.281,1.055-2.555Z" transform="translate(-2036.471 -1216.259)" fill="none" stroke="#18a338" stroke-miterlimit="10" stroke-width="1"/></g></g></g></svg>