<svg xmlns="http://www.w3.org/2000/svg" xmlns:xlink="http://www.w3.org/1999/xlink" width="304.15" height="72.701" viewBox="0 0 304.15 72.701"><defs><clipPath id="a"><rect width="304.15" height="72.701" fill="none"/></clipPath></defs><g clip-path="url(#a)"><path d="M100.549,46.882c-.009-.178-.022-.341-.04-.492-.113-.481-.47-.6-1.1-.312-.766.358-1.451.865-2.184,1.288-1.753,1.009-3.492,2.043-5.259,3.031l-.014.008c-.07.045-.137.089-.208.134l-.065.041a40.706,40.706,0,0,1-5.926,3.049,43.4,43.4,0,0,1-4.918,1.709l-.036.012a16.935,16.935,0,0,0-3.687,1.714A9.741,9.741,0,0,0,73.18,63c-.072.265-.142.537-.2.824a28.846,28.846,0,0,0-.554,6.612V82.239a.309.309,0,0,0,.125.253,2.686,2.686,0,0,0,2.344.116c.237-.08.47-.161.69-.24a18.368,18.368,0,0,0,4.912-3.284,14.373,14.373,0,0,0,.948-1.126,17.606,17.606,0,0,0,3.255-9.571,4.791,4.791,0,0,1,.239-1.031.48.48,0,0,1,.228-.242.139.139,0,0,1,.054.016c.142.073.313.412.513,1.225A16.414,16.414,0,0,1,73.985,87.243a.548.548,0,0,0-.376.478l-.032.339L72.8,96.408l-.027.3a.532.532,0,0,0,.686.58l2.707-.953c.314-.1.625-.215.937-.323.129-.045.255-.1.384-.142l.678-.239,0-.011c.238-.088.473-.183.711-.273C84.222,93.452,91.786,89.924,96,84.17a16.815,16.815,0,0,0,3.24-6.905,21.74,21.74,0,0,0,.548-4.12q.063-2.559.113-5.119V68c.125-1.687.228-3.362.312-5,.237-4.6.323-8.912.345-12.359q0-1.878-.009-3.756" transform="translate(-38.815 -24.613)" fill="#185125"/><path d="M.009,46.882c.009-.178.022-.341.04-.492.113-.481.47-.6,1.1-.312.766.358,1.451.865,2.184,1.288C5.082,48.375,6.82,49.409,8.587,50.4l.014.008c.07.045.137.089.208.134l.065.041A40.707,40.707,0,0,0,14.8,53.629a43.4,43.4,0,0,0,4.918,1.709l.036.012a16.935,16.935,0,0,1,3.687,1.714A9.741,9.741,0,0,1,27.378,63c.072.265.142.537.2.824a28.846,28.846,0,0,1,.554,6.612V82.239a.309.309,0,0,1-.125.253,2.686,2.686,0,0,1-2.344.116c-.237-.08-.47-.161-.69-.24a18.368,18.368,0,0,1-4.912-3.284,14.373,14.373,0,0,1-.948-1.126,17.606,17.606,0,0,1-3.255-9.571,4.791,4.791,0,0,0-.239-1.031.48.48,0,0,0-.228-.242.139.139,0,0,0-.054.016c-.142.073-.313.412-.513,1.225A16.414,16.414,0,0,0,26.573,87.243a.548.548,0,0,1,.376.478l.032.339.775,8.348.027.3a.532.532,0,0,1-.686.58l-2.707-.953c-.314-.1-.625-.215-.937-.323-.129-.045-.255-.1-.384-.142l-.678-.239,0-.011c-.238-.088-.473-.183-.711-.273C16.335,93.452,8.772,89.924,4.559,84.17a16.815,16.815,0,0,1-3.24-6.905,21.74,21.74,0,0,1-.548-4.12Q.709,70.586.658,68.026V68C.531,66.309.429,64.634.345,63,.108,58.392.021,54.085,0,50.638q0-1.878.009-3.756" transform="translate(0 -24.613)" fill="#185125"/><path d="M64.373,13.915A13.915,13.915,0,1,1,50.458,0,13.915,13.915,0,0,1,64.373,13.915" transform="translate(-19.587)" fill="#bd8326"/><path d="M267.342,66.665a1.082,1.082,0,0,0-.263-.34c-.637-.546-1.825-.226-2.546-.149-.138.015-.278.019-.434.03-.015-.143-.033-.234-.033-.325a.9.9,0,0,0-.772-.95,8.727,8.727,0,0,0-3.449-.195c-.879.132-1.1.435-1.121,1.312q-.049,1.907-.107,3.815a4.514,4.514,0,0,1-.063.459c-.221-.1-.391-.167-.557-.245a51.1,51.1,0,0,0-6.085-2.44,12.526,12.526,0,0,0-4.794-.723,6.626,6.626,0,0,0-3.846,1.2c-.038.031-.1.028-.185.049-.041-.345-.078-.675-.119-1a1.122,1.122,0,0,0-1.309-1.135,14.45,14.45,0,0,0-1.656.267c-.25.045-.5.114-.815.188.066-.21.1-.332.143-.446a10.9,10.9,0,0,0,.806-5.27,6.354,6.354,0,0,0-2.645-4.746,9.82,9.82,0,0,0-2.38-1.241,26.144,26.144,0,0,0-7.4-1.442,30.894,30.894,0,0,0-6.159.22,23.086,23.086,0,0,0-4.289.8,4.02,4.02,0,0,0-2.752,3.048,2,2,0,0,0,1.337,2.509c.191.077.387.138.583.2,1.192.382,2.388.754,3.577,1.145a23.359,23.359,0,0,1,4.789,2.038,9.95,9.95,0,0,1,1.951,1.515c.643.653.918,1.408,1.954,1.041.625-.222,1.531-.424,1.9-1.037.511-.847-.665-1.79-1.209-2.295a12.7,12.7,0,0,0-2.641-1.889c-1.2-.645-2.435-1.231-3.655-1.842-.172-.086-.343-.174-.514-.261l.027-.121c.177-.02.354-.053.533-.058.673-.017,1.347-.015,2.02-.039a21.84,21.84,0,0,1,8,1.151,9.916,9.916,0,0,1,1.977.913,2.269,2.269,0,0,1,.878,3.482,21.165,21.165,0,0,1-1.686,2.234.463.463,0,0,1-.389.122,8.549,8.549,0,0,0-4.223.237,16.362,16.362,0,0,0-3.814,1.48.514.514,0,0,1-.613-.015,7.874,7.874,0,0,0-2.6-1.012,18.491,18.491,0,0,0-5.137-.287,10.288,10.288,0,0,0-3.395.677.818.818,0,0,1-.53-.043,20.375,20.375,0,0,0-5.064-1.184,11.124,11.124,0,0,0-3.568.068,4.454,4.454,0,0,1-.741.052c-.269-1.067-.555-1.4-1.5-1.574a13.24,13.24,0,0,0-2.383-.121c-.479,0-1.246-.124-1.528.381-.056.1-.321,1.1-.2,1.146a2.893,2.893,0,0,0-1.138.057,10.393,10.393,0,0,0-3.285.808c-.273-.752-.42-.919-1.184-.993a19.217,19.217,0,0,0-2.573-.094,1.807,1.807,0,0,0-1.817,1.664,10.163,10.163,0,0,0-.052,1.283c-.006.23,0,.46,0,.695-.09-.011-.134,0-.16-.022-.243-.175-.487-.348-.721-.535a10.549,10.549,0,0,0-4.023-2.034,18.9,18.9,0,0,0-4.444-.525,7.35,7.35,0,0,0-3.508.84,12.631,12.631,0,0,0-4.527,3.943c-1.883,2.646-1.13,5.217.6,7.76a2.307,2.307,0,0,0,1.892,1.033,9.156,9.156,0,0,0,2.611-.3c1.564-.367,3.122-.762,4.689-1.114a5.765,5.765,0,0,1,1.389-.126c.3.007.728-.039.834.313s-.256.565-.509.727a20.471,20.471,0,0,1-2.029,1.186c-1.141.558-2.324,1.031-3.47,1.58-1.112.532-2.209,1.1-3.3,1.681-.508.272-1.293.735-1.329,1.374a6,6,0,0,0,1.27,3.389,2.447,2.447,0,0,0,2.234,1.05,3.561,3.561,0,0,0,1.038-.2,17.319,17.319,0,0,0,2.134-.983,29.821,29.821,0,0,0,5.3-3.855,19.069,19.069,0,0,0,1.9-2.056,3.776,3.776,0,0,0,.627-3.754,15.7,15.7,0,0,0-1.255-2.749,4.8,4.8,0,0,0-4.212-2.543,13.85,13.85,0,0,0-5.227.849c-.2.068-.412.129-.618.193l-.07-.109c.132-.144.255-.3.4-.431a15.754,15.754,0,0,1,3.232-2.407,9.868,9.868,0,0,1,2.062-.856,3.713,3.713,0,0,1,4.127,1.472,14.478,14.478,0,0,1,2.841,4.86,19.549,19.549,0,0,1,.264,5.12c-.009,1.851-.019,3.7,0,5.553.023,2.525.1,5.05.15,7.575,0,.194-.012.388-.02.624-.441-.1-.807-.174-1.167-.269a53.866,53.866,0,0,0-10.67-1.7,69.582,69.582,0,0,0-8.076-.011,5.866,5.866,0,0,0-1.268.211,1.548,1.548,0,0,0-1.173,1.532,4.271,4.271,0,0,0,.516,2.1,1.122,1.122,0,0,0,1.186.672c1.378-.122,2.755-.252,4.133-.366,1.639-.135,3.277-.311,4.919-.37a44.736,44.736,0,0,1,6.888.314,25.268,25.268,0,0,1,2.582.419,12.96,12.96,0,0,1,1.271.346c.482.162.818.2.967.742.1.361.067.784.349,1.06a1.91,1.91,0,0,0,1.05.471c1.8.3,4.564.279,5.117-1.924a1.97,1.97,0,0,0-.186-1.475c-.176-.3-.438-.53-.634-.812a8.821,8.821,0,0,1-.948-3.869c-.256-2.091-.261-4.2-.314-6.307-.054-2.176-.078-4.362.014-6.537.078-2.374.178-4.748.27-7.122.02-.523.049-1.046.069-1.569.007-.192.008-.38.227-.466a8.636,8.636,0,0,1,3.189-.351c.383,0,1.824-.184,1.9.407A9.028,9.028,0,0,1,199,72.257c-.042,5.489-.16,10.978-.236,16.467-.03,2.2-.093,4.4-.124,6.593-.012.878,0,1.758.036,2.635a1.325,1.325,0,0,0,1,1.227,2.685,2.685,0,0,0,.712.134,8.721,8.721,0,0,0,2.827-.343,1.126,1.126,0,0,0,.87-.862,4.784,4.784,0,0,0,.163-1.215c-.028-.8-.155-1.6-.191-2.4-.116-2.578-.268-5.158-.294-7.738-.05-4.877.094-9.753.165-14.629.006-.425.036-.849.058-1.338.521,0,.987.031,1.449-.008a13.234,13.234,0,0,0,1.374-.23A8.964,8.964,0,0,1,208,70.3a2.717,2.717,0,0,1,1.573.3c-.287.354-.561.66-.8.992a3.306,3.306,0,0,0-.325,3.6,9.94,9.94,0,0,0,.817,1.338c.819,1.162,1.673,2.3,2.482,3.468a18.032,18.032,0,0,1,1,1.689,3.868,3.868,0,0,1,.216.754c-.412-.027-.724-.065-1.036-.065a15.758,15.758,0,0,0-2.336.051c-3.195.479-3.172,4.538-2.215,6.86a5.377,5.377,0,0,0,5.48,3.3,3.383,3.383,0,0,0,1.983-1.218c.14-.16,1.341-1.974,1.365-1.967.155.045.282.071.4.118.555.221,1.107.454,1.663.674a7.742,7.742,0,0,1,4.4,4.242c.335.766.56,1.574.888,2.342.319.748.891.855,1.624,1.038a5.925,5.925,0,0,0,2.015.138,2.334,2.334,0,0,0,2.3-2.48,5.922,5.922,0,0,0-.269-1.649A5.128,5.128,0,0,1,229,91.792c.212-2.008.343-4.024.508-6.037a49.031,49.031,0,0,0,.077-8.742,21.284,21.284,0,0,0-1.076-5.146c-.062-.173-.118-.348-.179-.529a2.2,2.2,0,0,1,1.231-.425c1.04-.066,2.083-.116,3.125-.106.857.008.98.157.975,1-.012,2.132-.043,4.265-.065,6.4-.038,3.554-.069,7.109-.116,10.663-.023,1.777-.084,3.553-.109,5.33-.013.878,0,1.758.036,2.635a1.325,1.325,0,0,0,1,1.227,2.685,2.685,0,0,0,.712.134,8.709,8.709,0,0,0,2.827-.343,1.126,1.126,0,0,0,.87-.861,4.763,4.763,0,0,0,.162-1.215c-.028-.8-.154-1.6-.191-2.4-.115-2.578-.268-5.157-.294-7.738-.036-3.5.029-7,.056-10.493.009-1.179.041-2.357.048-3.536a.562.562,0,0,1,.364-.613,6.867,6.867,0,0,1,3.133-.274c0,.273.007.478,0,.683a20.617,20.617,0,0,0,.456,5.574,10.974,10.974,0,0,0,1.586,3.868,5.178,5.178,0,0,0,3.565,2.312c.184.028.363.1.548.117a6.793,6.793,0,0,0,1.277.064A14.734,14.734,0,0,0,251.338,83a5.823,5.823,0,0,0,2.257-.954,2.263,2.263,0,0,0,.8-2.881,7.327,7.327,0,0,0-2.653-3.127,1.852,1.852,0,0,0-2.9.791,5.025,5.025,0,0,1-.308.6c-.074.1-.245.227-.345.206a3.6,3.6,0,0,1-2.23-1.293.7.7,0,0,1,.034-1.018,7.471,7.471,0,0,1,4.918-2.86c.908-.11,1.828-.109,2.741-.17a2.364,2.364,0,0,1,1.8.647,7.758,7.758,0,0,1,.68.668,14.477,14.477,0,0,1,2.314,3.629,1.924,1.924,0,0,1,.16.7c.081,2.468.162,4.936.213,7.4.038,1.813.028,3.627.043,5.44a13.641,13.641,0,0,0,.039,1.792q.377,2.662.852,5.309A5.052,5.052,0,0,0,260.3,99.4a1.119,1.119,0,0,0,1.98.113,2.191,2.191,0,0,0,.41-.848,9.606,9.606,0,0,0,.21-1.72c.017-.821-.056-1.644-.065-2.466-.044-4.251.295-8.485.581-12.721.225-3.323.417-6.646.393-9.978,0-.218,0-.436,0-.657.214-.061.354-.107.5-.141.581-.137,1.17-.247,1.745-.409a1.83,1.83,0,0,0,1.223-1.6,4.613,4.613,0,0,0,.067-2.313M224.417,86.3c-.122.774-.265,1.546-.4,2.318-.032.182-.083.361-.142.614a2.367,2.367,0,0,1-.246-.176,29.868,29.868,0,0,0-5.518-4.207,1.038,1.038,0,0,1-.619-1.051,6,6,0,0,0-.811-3c-.515-1.017-1.031-2.033-1.525-3.06a6.734,6.734,0,0,1-.717-3.084,4.127,4.127,0,0,1,2.927-3.836c.483-.143.975-.259,1.454-.416a3.7,3.7,0,0,1,2.153-.077,16.588,16.588,0,0,1,1.967.63,2.524,2.524,0,0,1,1.631,2.114c.114.851.272,1.7.314,2.557.081,1.643.135,3.289.125,4.933a38.337,38.337,0,0,1-.592,5.738" transform="translate(-89.193 -28.55)" fill="#bd8326"/><path d="M520.683,80.867a.99.99,0,0,0-1.063-.692c-.428,0-.857.04-1.283.082-.287.029-.571.093-.876.145-.02-.16-.04-.25-.041-.341a.929.929,0,0,0-.822-.975,9.17,9.17,0,0,0-3.615-.146c-.674.16-.884.447-.9,1.145q-.052,1.963-.112,3.927c0,.139-.034.277-.06.475-.257-.11-.461-.19-.659-.284a51.674,51.674,0,0,0-5.981-2.4,12.4,12.4,0,0,0-5.855-.617,7.575,7.575,0,0,0-1.665.429,4.524,4.524,0,0,0-.758.39c-.175.114-.314.279-.494.391-.126.078-.288.149-.3-.068a5.33,5.33,0,0,0-.041-1.6.894.894,0,0,0-.883-.534,7.929,7.929,0,0,0-.894.054c-.288.019-.576.045-.864.067-.167.013-.574.111-.724.015-.124-.079-.12-.4-.169-.533a1.479,1.479,0,0,0-.273-.467,1.728,1.728,0,0,0-.947-.529,8.057,8.057,0,0,0-2.052-.153c-.352.015-.7.047-1.052.088-.331.039-.773-.017-.9.374a4.184,4.184,0,0,0-.1.579c-.02.119-.039.24-.066.358-.06.257-.431.147-.629.14a6.126,6.126,0,0,0-1.141.032,9.694,9.694,0,0,1-2.289-.068,8.044,8.044,0,0,0-5.3.9c-.191-.074-.363-.147-.539-.208a11.625,11.625,0,0,0-5.683-.576,5.661,5.661,0,0,1-.874.007c-.244-.875-.411-1.061-1.153-1.189a12.811,12.811,0,0,0-3.3-.1c-.975.085-1.213.378-1.274,1.346-.011.168-.013.337-.031.5-.039.366-.085.732-.133,1.128-.187-.048-.333-.074-.471-.122a27.261,27.261,0,0,0-7.642-1.4c-2.559-.129-5.122-.176-7.683-.228-3.853-.078-7.7-.007-11.556.088a33.667,33.667,0,0,0-6.625.7,2.969,2.969,0,0,1-1.424,0,6.189,6.189,0,0,0-3.486.043,1.542,1.542,0,0,1-.873.032,37.4,37.4,0,0,0-5.55-.762,95.224,95.224,0,0,0-10.5-.315c-.659.019-1.319.045-1.978.066a11.937,11.937,0,0,0-1.783.065c-1.215.232-1.192,1.907-1.11,2.885a2.989,2.989,0,0,0,.167.763c.373,1.026,1.353,1.058,2.289.956,1.3-.142,2.609-.234,3.916-.288a56.365,56.365,0,0,1,8.794.323c.7.081,1.4.175,2.1.263.013.039.026.077.039.116-.112.094-.22.191-.335.28-1.245.959-2.482,1.927-3.739,2.871A45.434,45.434,0,0,0,409.7,96a17.981,17.981,0,0,0-2.507,3.977,2.523,2.523,0,0,0,.6,3.438,24.694,24.694,0,0,0,2.156,1.876c.878.7.894.67,1.976.536a23.967,23.967,0,0,1,8.141.371,9.862,9.862,0,0,1,4.214,1.88,4.608,4.608,0,0,1,.968.962,2.262,2.262,0,0,1,.3,1.381c-.009.936,1.009,1,1.715,1.094a6.568,6.568,0,0,0,1.709.016,3.149,3.149,0,0,0,2.616-1.739,2.055,2.055,0,0,0,.183-1.072,3.382,3.382,0,0,0-.479-1.147c-.208-.389-.4-.787-.621-1.167a3.78,3.78,0,0,1-.475-1.65c-.131-1.49-.3-2.978-.395-4.469-.081-1.287-.122-2.58-.1-3.869a66.227,66.227,0,0,1,.626-7.374c.052-.414.13-.825.211-1.328.646.442,1.2.816,1.753,1.2a18.193,18.193,0,0,1,4.575,4.582,4.919,4.919,0,0,1,.787,2.3,2.076,2.076,0,0,1-.045.416c-.246-.154-.43-.275-.62-.387-.692-.407-1.38-.824-2.082-1.213a1.588,1.588,0,0,0-1.657.063,3.3,3.3,0,0,0-.754.575,12.616,12.616,0,0,0-1.054,1.307,3.623,3.623,0,0,0-.659,3.329,2.535,2.535,0,0,0,1.239,1.645,4.535,4.535,0,0,0,1.048.385,10.324,10.324,0,0,0,4.067.032,5.312,5.312,0,0,0,2.934-1.535,7.08,7.08,0,0,0,2.122-4.983,9.8,9.8,0,0,0-1.059-4.6,15.694,15.694,0,0,0-5.781-6.277c-.18-.116-.356-.235-.534-.353a1.068,1.068,0,0,1,.517-.12,41.554,41.554,0,0,1,5.189.458,19.434,19.434,0,0,0,2.594.2c.886-.016,1.761-.218,2.641-.306q1.6-.161,3.2-.247,3.127-.167,6.259-.028a27.506,27.506,0,0,1,8.654,1.954c.681.263.96.378.959,1.143,0,1.048.02,2.094-.01,3.142-.015.537-.033,1.076-.07,1.612a5.328,5.328,0,0,0-.1.817c-.163-.14-.311-.278-.47-.4-.4-.311-.786-.634-1.2-.917a1.431,1.431,0,0,0-1.863.061c-.563.463-1.115.94-1.672,1.411-.133.113-.267.224-.434.364-.226-.624-.406-1.174-.622-1.709a8.172,8.172,0,0,0-1.877-2.9,3.919,3.919,0,0,0-3-1.161,8.571,8.571,0,0,0-3.575,1.052,21.382,21.382,0,0,0-4.962,3.636,7.371,7.371,0,0,0-1.592,2.017,7.6,7.6,0,0,0,.251,7.611,10.429,10.429,0,0,0,4.667,4.155,8.033,8.033,0,0,0,1.27.438,3.161,3.161,0,0,0,1.934.022,5.691,5.691,0,0,0,3.081-2.479,2.132,2.132,0,0,0,.059-2.24,9.564,9.564,0,0,0-1.567-2.249,3.878,3.878,0,0,0-.833-.654,1.343,1.343,0,0,0-1.534.067,8.208,8.208,0,0,0-.789.711,15.415,15.415,0,0,1-1.145,1.069,3.69,3.69,0,0,1-1,.484.821.821,0,0,1-.938-.157c-.222-.258-.08-.588.052-.848a7.76,7.76,0,0,1,.747-1.246,24.769,24.769,0,0,1,4.706-4.631,6.878,6.878,0,0,1,1.154-.685c.509-.244.658-.2.854.331a12.676,12.676,0,0,1,.574,1.929c.255,1.283.455,2.576.66,3.868a1.2,1.2,0,0,0,.65.925,3.219,3.219,0,0,0,.827.333c.639.135,1.285.242,1.933.326.99.129.995.119,1.53-.72s1.052-1.68,1.589-2.514c.138-.215.318-.4.527-.663a5.392,5.392,0,0,1,.677.536c.328.357.615.751.926,1.125a1.45,1.45,0,0,1,.316.878c.077,1.27.164,2.539.245,3.808q.187,2.94.372,5.879c.039.623.057,1.253.141,1.872a.667.667,0,0,0,.079.272c.244.387,1.316.551,1.72.622a5.282,5.282,0,0,0,2.185-.07,1.708,1.708,0,0,0,1.229-2.4,2.937,2.937,0,0,1-.156-.7c-.106-1.079-.212-2.159-.289-3.241-.1-1.417-.2-2.835-.25-4.255-.044-1.308-.021-2.619-.02-3.928,0-2.656-.041-5.313.032-7.967.043-1.528.267-3.051.431-4.576.093-.871,2.294-.78,2.929-.811.355-.017,2.324-.2,2.286.478a3.193,3.193,0,0,1-.457.976c-.242.5-.49,1-.717,1.509a23.851,23.851,0,0,0-1.141,3.065,11.279,11.279,0,0,0-.517,4.205,3.04,3.04,0,0,0,1.778,2.661,9.816,9.816,0,0,0,1.03.443c.849.29,1.707.55,2.558.835a4.325,4.325,0,0,1,.769.332c.551.315.657.551.438,1.158a18.527,18.527,0,0,1-1.993,3.527c-.99,1.556-1.94,3.146-3.012,4.647-1.132,1.585-2.446,3.03-3.72,4.5a2.487,2.487,0,0,0-.39.542.954.954,0,0,0,.909,1.467,5.049,5.049,0,0,0,2.379-.553,1.415,1.415,0,0,0,.41-.367c.432-.491.846-1,1.283-1.487,1.7-1.9,3.416-3.772,5.1-5.683a41.685,41.685,0,0,0,4.184-5.551,9.517,9.517,0,0,0,1.245-2.7,4.77,4.77,0,0,0-3.413-5.316,23.766,23.766,0,0,0-4.6-.572.769.769,0,0,1-.625-.277c-.637-.976,1.646-3.186,2.192-3.839a40.759,40.759,0,0,1,3.192-3.326A1.622,1.622,0,0,1,483.9,84.7a18.264,18.264,0,0,0,1.849.258c.422.032,1.6-.319,1.74.253a6.949,6.949,0,0,1,.056,1.529c-.055,5.58-.058,11.243-.131,16.852-.024,1.777-.084,3.553-.109,5.33-.013.878,0,1.758.036,2.635a1.326,1.326,0,0,0,1,1.227,2.686,2.686,0,0,0,.712.134,8.708,8.708,0,0,0,2.826-.343,1.127,1.127,0,0,0,.87-.861,4.806,4.806,0,0,0,.162-1.215c-.028-.8-.155-1.6-.191-2.4q-.141-3.11-.215-6.223t-.1-6.256q-.018-3.129.017-6.257.012-1.095.031-2.19c.008-.509,0-1.018.021-1.527a1.623,1.623,0,0,1,.033-.526c.1-.227.472-.181.665-.17a8.182,8.182,0,0,0,1.07-.049c.225-.016.449-.036.673-.059.133-.013.455-.117.547.022a.352.352,0,0,1,.041.194c-.005.911-.148,1.821-.1,2.744a18.525,18.525,0,0,0,.391,2.937c.039.181.082.362.124.542a10.4,10.4,0,0,0,1.668,3.891,5.224,5.224,0,0,0,3.258,2.125c.275.055.547.131.824.162a5,5,0,0,0,1.11.058,17.436,17.436,0,0,0,1.875-.339,5.836,5.836,0,0,0,2.306-.978,2.256,2.256,0,0,0,.8-2.79A7.152,7.152,0,0,0,505,90.16a1.826,1.826,0,0,0-2.79.766c-.116.213-.215.435-.326.651a.332.332,0,0,1-.4.22,3.706,3.706,0,0,1-2.182-1.276.718.718,0,0,1,.017-1.023,7.434,7.434,0,0,1,4.747-2.843c1-.141,2.012-.136,3.019-.2a2.1,2.1,0,0,1,1.55.538,9.551,9.551,0,0,1,1.068,1.068,14.981,14.981,0,0,1,1.98,3.119,2.812,2.812,0,0,1,.278,1.185c.051,2.244.134,4.487.181,6.731.038,1.794.029,3.59.059,5.384.017,1.064.025,2.133.119,3.192.073.815.278,1.618.42,2.427.12.681.2,1.371.362,2.041a5.719,5.719,0,0,0,.554,1.458,1.107,1.107,0,0,0,1.88.17,1.961,1.961,0,0,0,.418-.718,4.917,4.917,0,0,0,.237-1.259c.029-.99.007-1.982-.009-2.973-.06-3.9.241-7.776.477-11.659q.249-4.088.436-8.179c.05-1.083.022-2.17.035-3.255.006-.45.013-.452.446-.564.144-.037.293-.058.438-.092.473-.111.953-.2,1.416-.342a1.5,1.5,0,0,0,1.128-1.328,6.446,6.446,0,0,0,.12-2.533M424.86,103.114a20.174,20.174,0,0,0-4.8-1.954c-1.644-.406-3.306-.743-4.99-1.117,2-5.06,5.624-8.756,10.19-11.831a42.608,42.608,0,0,0-.4,14.9" transform="translate(-216.634 -42.148)" fill="#bd8326"/></g></svg>