<svg xmlns="http://www.w3.org/2000/svg" width="40.82" height="40.846" viewBox="0 0 40.82 40.846"><path d="M1906.389,1067.327a30.989,30.989,0,0,1-29.772-25.4,27.143,27.143,0,0,1-.452-6.278,7.871,7.871,0,0,1,6.521-6.974,8.884,8.884,0,0,1,3.131.135,1.039,1.039,0,0,1,.875.865q1.3,5.756,2.609,11.508a.887.887,0,0,1-.449,1.074c-.541.319-1.064.664-1.6,1-.571.358-.657.575-.406,1.176a21.677,21.677,0,0,0,12.213,12.2c.559.229.823.135,1.147-.384.314-.5.624-1.009.936-1.515.351-.572.576-.679,1.217-.535q5.73,1.293,11.461,2.587a1.013,1.013,0,0,1,.823.793,7.794,7.794,0,0,1-7.291,9.749C1907.034,1067.331,1906.712,1067.327,1906.389,1067.327Z" transform="translate(-1876.138 -1026.483)" fill="#fff"/><path d="M1911.365,1047.26c0,.249,0,.5,0,.759a.818.818,0,0,1-.823.9.829.829,0,0,1-.845-.839c-.048-.709-.034-1.42-.114-2.13a18.722,18.722,0,0,0-4.2-10.037,18.974,18.974,0,0,0-11.53-6.813,18.226,18.226,0,0,0-3.236-.289c-.634,0-.954-.256-1.015-.713-.081-.6.34-1.016,1.052-.994a21.567,21.567,0,0,1,4.186.476,20.783,20.783,0,0,1,14.6,11.671A19.577,19.577,0,0,1,1911.365,1047.26Z" transform="translate(-1870.546 -1027.102)" fill="#fff"/><path d="M1907.543,1046.645v.1c-.01.62-.317,1-.833,1.019-.532.023-.861-.3-.882-.953a16.836,16.836,0,0,0-.219-2.53,15.174,15.174,0,0,0-7.606-10.769,14.388,14.388,0,0,0-7.23-1.965,2.778,2.778,0,0,1-.4-.03.787.787,0,0,1-.767-.8.771.771,0,0,1,.756-.855,9.668,9.668,0,0,1,2.579.16,16.891,16.891,0,0,1,13.655,11.334A16.122,16.122,0,0,1,1907.543,1046.645Z" transform="translate(-1870.544 -1025.966)" fill="#fff"/><path d="M1903.687,1045.589c0,.041,0,.109,0,.176a.89.89,0,0,1-.8.9.8.8,0,0,1-.881-.793c-.1-.824-.1-1.653-.267-2.473a11.521,11.521,0,0,0-10.792-9.107,3.265,3.265,0,0,1-.754-.082.764.764,0,0,1-.586-.844.747.747,0,0,1,.632-.753,4.716,4.716,0,0,1,1.667.05,13.262,13.262,0,0,1,11.689,11.688C1903.633,1044.75,1903.653,1045.156,1903.687,1045.589Z" transform="translate(-1870.544 -1024.84)" fill="#fff"/><path d="M1890.688,1035.284a9.417,9.417,0,0,1,9.065,8.492,3.64,3.64,0,0,1,.054.96.858.858,0,0,1-.95.79c-.4-.021-.668-.328-.715-.841a9.491,9.491,0,0,0-.467-2.588,7.585,7.585,0,0,0-6.7-5.076c-.185-.014-.371-.03-.556-.054-.563-.072-.835-.351-.823-.837a.834.834,0,0,1,.886-.846C1890.552,1035.28,1890.62,1035.284,1890.688,1035.284Z" transform="translate(-1870.545 -1023.703)" fill="#fff"/></svg>