<svg id="_521yaj" data-name="521yaj" xmlns="http://www.w3.org/2000/svg" width="60.813" height="60.852" viewBox="0 0 60.813 60.852">
  <g id="Group_39" data-name="Group 39">
    <path id="Path_101" data-name="Path 101" d="M1921.205,1086.3a46.167,46.167,0,0,1-44.354-37.843,40.447,40.447,0,0,1-.673-9.352c.221-4.948,4.732-9.734,9.716-10.39a13.236,13.236,0,0,1,4.664.2,1.548,1.548,0,0,1,1.3,1.288q1.93,8.576,3.887,17.145a1.322,1.322,0,0,1-.668,1.6c-.805.475-1.586.989-2.377,1.485-.85.534-.978.856-.605,1.752a32.3,32.3,0,0,0,18.195,18.18c.833.342,1.226.2,1.708-.571.468-.749.93-1.5,1.394-2.256.523-.852.858-1.012,1.813-.8q8.537,1.926,17.075,3.855a1.508,1.508,0,0,1,1.225,1.181,11.611,11.611,0,0,1-10.862,14.524C1922.167,1086.3,1921.686,1086.3,1921.205,1086.3Z" transform="translate(-1876.138 -1025.449)" fill="#95c11f"/>
    <path id="Path_102" data-name="Path 102" d="M1922.027,1057.133c0,.371,0,.751,0,1.131a1.218,1.218,0,0,1-1.225,1.341,1.234,1.234,0,0,1-1.259-1.25c-.072-1.056-.051-2.115-.169-3.174a27.891,27.891,0,0,0-6.252-14.953,28.267,28.267,0,0,0-17.177-10.15,27.149,27.149,0,0,0-4.821-.43c-.945-.006-1.421-.382-1.512-1.063-.12-.892.506-1.514,1.567-1.48a32.131,32.131,0,0,1,6.236.708,30.962,30.962,0,0,1,21.756,17.387A29.162,29.162,0,0,1,1922.027,1057.133Z" transform="translate(-1861.215 -1027.102)" fill="#95c11f"/>
    <path id="Path_103" data-name="Path 103" d="M1916.331,1054.876v.152c-.015.924-.472,1.487-1.24,1.519-.793.034-1.282-.454-1.314-1.419a25.1,25.1,0,0,0-.327-3.768,22.607,22.607,0,0,0-11.331-16.044,21.434,21.434,0,0,0-10.772-2.927,4.2,4.2,0,0,1-.6-.044,1.173,1.173,0,0,1-1.143-1.187,1.149,1.149,0,0,1,1.126-1.274,14.4,14.4,0,0,1,3.842.239c9.985,1.759,16.752,7.431,20.343,16.885A24.015,24.015,0,0,1,1916.331,1054.876Z" transform="translate(-1861.21 -1024.07)" fill="#95c11f"/>
    <path id="Path_104" data-name="Path 104" d="M1910.586,1051.977c0,.061,0,.162,0,.261a1.325,1.325,0,0,1-1.2,1.335,1.194,1.194,0,0,1-1.312-1.181c-.143-1.227-.152-2.463-.4-3.684a17.164,17.164,0,0,0-16.078-13.568,4.863,4.863,0,0,1-1.124-.122,1.138,1.138,0,0,1-.873-1.257,1.112,1.112,0,0,1,.941-1.122,7.027,7.027,0,0,1,2.484.074,19.757,19.757,0,0,1,17.415,17.413C1910.506,1050.727,1910.536,1051.332,1910.586,1051.977Z" transform="translate(-1861.21 -1021.065)" fill="#95c11f"/>
    <path id="Path_105" data-name="Path 105" d="M1891.221,1035.285a14.028,14.028,0,0,1,13.5,12.651,5.417,5.417,0,0,1,.08,1.43,1.278,1.278,0,0,1-1.415,1.177c-.6-.032-1-.489-1.065-1.252a14.14,14.14,0,0,0-.7-3.855,11.3,11.3,0,0,0-9.977-7.562c-.276-.021-.552-.044-.829-.08-.84-.108-1.244-.523-1.225-1.246a1.243,1.243,0,0,1,1.32-1.261C1891.018,1035.279,1891.12,1035.285,1891.221,1035.285Z" transform="translate(-1861.212 -1018.032)" fill="#95c11f"/>
  </g>
</svg>
