<svg id="Group_201" data-name="Group 201" xmlns="http://www.w3.org/2000/svg" width="57.727" height="57.614" viewBox="0 0 57.727 57.614">
  <path id="Path_99" data-name="Path 99" d="M1899.062,848.613a25.838,25.838,0,0,1,25.7,22.578,25.363,25.363,0,0,1-3.667,16.984,1.21,1.21,0,0,0,.211,1.817q4.032,3.943,7.982,7.969a4.818,4.818,0,0,1-3.9,8.243,4.832,4.832,0,0,1-3.031-1.54c-2.632-2.63-5.281-5.241-7.884-7.9a1.137,1.137,0,0,0-1.71-.225,25.936,25.936,0,1,1-17.049-47.717A28.774,28.774,0,0,1,1899.062,848.613Zm-16.34,25.892a16.332,16.332,0,1,0,16.389-16.3A16.409,16.409,0,0,0,1882.722,874.505Z" transform="translate(-1873.045 -848.613)" fill="#95c11f"/>
</svg>
