<svg xmlns="http://www.w3.org/2000/svg" width="41.377" height="41.296" viewBox="0 0 41.377 41.296"><path d="M1891.693,848.613a18.52,18.52,0,0,1,18.422,16.184,18.179,18.179,0,0,1-2.629,12.173.867.867,0,0,0,.151,1.3q2.89,2.826,5.721,5.712a3.453,3.453,0,0,1-2.794,5.908,3.464,3.464,0,0,1-2.173-1.1c-1.887-1.885-3.785-3.757-5.651-5.662a.815.815,0,0,0-1.226-.161,18.59,18.59,0,1,1-12.22-34.2A20.619,20.619,0,0,1,1891.693,848.613Zm-11.712,18.559a11.706,11.706,0,1,0,11.747-11.684A11.762,11.762,0,0,0,1879.981,867.172Z" transform="translate(-1873.045 -848.613)" fill="#fff"/></svg>