<svg xmlns="http://www.w3.org/2000/svg" width="485.178" height="479.412" viewBox="0 0 485.178 479.412"><g transform="translate(-866.357 -468.634)"><g transform="translate(974.665 651.317)"><path d="M1223.571,723.988a112.255,112.255,0,0,1,23.078,7.969l6.973-12.452a68.372,68.372,0,0,0-26.9-10.461Z" transform="translate(-918.748 -613.578)" fill="none" stroke="#fff" stroke-miterlimit="10" stroke-width="1.31"/><path d="M1237.369,626.531H994.142q-34.037,30.718-34.036,56.782,0,48.15,31.545,48.149,6.64,0,14.611-4.483l-5.479-15.109q-6.144,3.822-9.795,3.819-8.138,0-12.618-10.459a43.172,43.172,0,0,1-3.322-17.1q0-16.936,11.373-30.717,10.644-12.9,25.875-15.9,24.678,13.608,24.679,34.5,0,6.145-4.98,15.11-5.48,9.96-10.959,9.961-5.314,0-14.777-8.467v18.1q10.321,6.643,16.313,6.641,11.814,0,19.8-11.456,5.825-11.456,10.987-21.583,5.658-11.458,11.816-11.456a7,7,0,0,1,5.827,3.164,11.072,11.072,0,0,1,2.33,6.659V729.3h16.437V641.473h84.008q-26.854,10.17-37.193,14.5-25.52,10.833-35.86,18.5l4.65,17.166q16.6.668,39.265,12.917t31.131,25.914h14.444V641.473h17.431V730.3h16.437V641.473h14.277v12.286a59.011,59.011,0,0,1,20.09,4.318q10.958,4.318,16.769,11.455l-37.191,15.939,4.65,16.437q46.819,10.628,68.4,28.392h14.941V641.473h10.295V626.531Zm-164.033,34.535a12.907,12.907,0,0,0-9.844-4.318q-6.341,0-12.677,5.812a44.336,44.336,0,0,0-12.513-21.086h35.033ZM1173.782,705.4a167.628,167.628,0,0,0-44.828-25.9q28.888-13.613,44.828-19.259Zm135.808,4.981q-16.172-9.964-39.847-19.259l23.742-10.958V664.883q-6.144-10.621-28.556-23.409h44.661Z" transform="translate(-960.106 -626.531)" fill="none" stroke="#fff" stroke-miterlimit="10" stroke-width="1.31"/></g><text transform="translate(867.357 897.046)" fill="#fff" font-size="133" font-family="KongshoMJ-Bold, KongshoMJ" font-weight="700"><tspan x="0" y="0">cv‡kB AvwQ</tspan></text><text transform="translate(902.065 588.634)" fill="#fff" font-size="134" font-family="KongshoMJ-Bold, KongshoMJ" font-weight="700"><tspan x="0" y="0">m¦v¯’¨</tspan></text></g></svg>